<?xml version="1.0" encoding="UTF-8"?><svg id="a" xmlns="http://www.w3.org/2000/svg" viewBox="0 0 20 20"><path d="M17.93,0H2.07C.93,0,0,.93,0,2.07v15.85C0,19.07,.93,20,2.07,20h15.85c1.14,0,2.07-.93,2.07-2.07V2.07c0-1.14-.93-2.07-2.07-2.07ZM7.25,5.34V14.49c0,.06,0,.11-.1,.11h-1.29s-.06-.06-.06-.11V5.3s.06-.06,.1-.06h1.29c.08,0,.08,.04,.06,.11Zm6.9,8.91c-.69,.32-1.44,.49-2.21,.51-1.83,0-3.17-1.15-3.17-3.55,0-2.03,1.33-3.63,3.44-3.63h.44v-2.27s.02-.06,.06-.06h1.37c.06,0,.06,.02,.06,.06v7.99c0,.28,.02,.56,.06,.83q0,.06-.06,.11Z" style="fill:#757575;"/><path d="M10.27,11.15c0,1.62,.77,2.27,1.73,2.27,.21,0,.42-.04,.6-.11v-4.36c-.17-.04-.33-.06-.5-.06-1.06,0-1.83,.86-1.83,2.27Z" style="fill:#757575;"/></svg>