<?xml version="1.0" encoding="UTF-8"?><svg id="a" xmlns="http://www.w3.org/2000/svg" viewBox="0 0 20 20"><path d="M19.63,8.21H10.19v3.86h5.4c-.22,1.24-.94,2.33-2,3.03h0c-.89,.61-2.05,.96-3.4,.96-2.61,0-4.81-1.76-5.62-4.11v-.03c-.42-1.24-.42-2.59,0-3.83h0c.81-2.38,3.01-4.12,5.62-4.12,1.42-.02,2.81,.52,3.83,1.5l2.85-2.88C15.07,.89,12.68-.02,10.19,0,6.4,0,2.96,2.14,1.26,5.51h0c-1.42,2.83-1.42,6.16,0,8.98h0s0,0,0,0h0s0,.02,.01,.03v.03s.02,0,.02,0c1.71,3.35,5.13,5.46,8.9,5.46,2.69,0,4.95-.89,6.61-2.41h.01c1.9-1.75,2.98-4.33,2.98-7.35,0-.68-.07-1.37-.17-2.03ZM1.68,7.1l1.75,1.36c-.22,1.01-.22,2.06,0,3.07l-1.75,1.36c-.63-1.87-.63-3.92,0-5.8Zm15.04,9.16l-1.54-1.2c.73-.78,1.21-1.75,1.4-2.82l.21-1.17h-5.6v-1.86h7.56c.03,.35,.05,.7,.05,1.03,0,2.35-.73,4.46-2.08,6.02Z" style="fill:#757575;"/></svg>