<?xml version="1.0" encoding="UTF-8"?><svg id="a" xmlns="http://www.w3.org/2000/svg" xmlns:xlink="http://www.w3.org/1999/xlink" viewBox="0 0 20 20"><defs><clipPath id="b"><rect x=".58" width="18.85" height="20" style="fill:none;"/></clipPath></defs><g style="clip-path:url(#b);"><path d="M14.75,9.45c.15-.02,.29-.02,.41,0,.07-.17,.09-.46,.02-.78-.1-.48-.23-.76-.51-.72-.28,.04-.29,.39-.19,.87,.06,.27,.16,.5,.27,.64" style="fill:#757575;"/><path d="M12.36,9.83c.2,.09,.32,.15,.37,.09,.03-.03,.02-.09-.03-.17-.1-.16-.3-.32-.51-.41-.44-.19-.96-.13-1.36,.16-.13,.1-.26,.23-.24,.31,0,.03,.03,.05,.07,.05,.11,.01,.49-.18,.93-.21,.31-.02,.57,.08,.77,.16" style="fill:#757575;"/><path d="M11.96,10.06c-.26,.04-.4,.13-.49,.21-.08,.07-.13,.15-.13,.2,0,.03,.01,.04,.02,.05,.01,.01,.03,.02,.04,.02,.06,0,.19-.05,.19-.05,.36-.13,.6-.11,.83-.09,.13,.02,.19,.02,.22-.02,0-.01,.02-.04,0-.08-.06-.1-.32-.27-.68-.22" style="fill:#757575;"/><path d="M13.95,10.89c.18,.09,.37,.05,.43-.08,.06-.13-.03-.3-.2-.39-.18-.09-.37-.05-.43,.08-.06,.13,.03,.3,.2,.39" style="fill:#757575;"/><path d="M15.08,9.91c-.14,0-.26,.15-.26,.35,0,.2,.11,.36,.25,.36,.14,0,.26-.15,.26-.35,0-.2-.11-.36-.25-.36" style="fill:#757575;"/><path d="M5.47,13.44s-.09-.03-.15-.02c-.04,0-.08,.02-.13,.02-.11,0-.2-.05-.24-.12-.07-.1-.06-.25,.01-.42,.01-.02,.02-.05,.03-.08,.11-.26,.31-.69,.09-1.1-.16-.31-.43-.5-.74-.54-.31-.04-.62,.07-.82,.3-.32,.35-.37,.82-.3,.99,.02,.06,.06,.08,.08,.08,.05,0,.13-.03,.18-.17,0,0,0-.02,.01-.04,.02-.07,.06-.2,.13-.31,.08-.13,.21-.22,.36-.25,.15-.03,.31,0,.44,.08,.22,.15,.31,.42,.21,.68-.05,.13-.13,.39-.11,.6,.03,.43,.3,.6,.53,.62,.23,0,.39-.12,.43-.21,.02-.06,0-.09-.01-.1" style="fill:#757575;"/><path d="M7.65,5.62c.75-.86,1.67-1.61,2.49-2.03,.03-.02,.06,.02,.04,.04-.07,.12-.19,.37-.23,.56,0,.03,.03,.05,.05,.04,.51-.35,1.4-.72,2.18-.77,.03,0,.05,.04,.02,.06-.12,.09-.25,.22-.34,.34-.02,.02,0,.05,.03,.05,.55,0,1.32,.2,1.83,.48,.03,.02,.01,.08-.03,.08-.76-.17-2.01-.31-3.31,0-1.16,.28-2.04,.72-2.69,1.19-.03,.02-.07-.02-.04-.05m3.72,8.36h0m3.08,.36s.04-.03,.03-.06c0-.03-.03-.05-.06-.05,0,0-1.59,.24-3.1-.31,.16-.53,.6-.34,1.26-.29,1.19,.07,2.25-.1,3.04-.33,.68-.2,1.58-.58,2.27-1.13,.23,.52,.32,1.08,.32,1.08,0,0,.18-.03,.33,.06,.14,.09,.25,.27,.18,.75-.15,.89-.52,1.6-1.16,2.27-.39,.41-.85,.78-1.39,1.04-.28,.15-.59,.28-.91,.38-2.39,.78-4.83-.08-5.61-1.92-.06-.14-.12-.28-.16-.43-.34-1.21-.05-2.67,.84-3.58,.05-.06,.11-.13,.11-.21,0-.07-.05-.15-.09-.2-.31-.45-1.39-1.22-1.17-2.71,.16-1.07,1.09-1.82,1.96-1.78,.07,0,.15,0,.22,.01,.38,.02,.71,.07,1.02,.08,.52,.02,.99-.05,1.54-.52,.19-.16,.34-.29,.59-.33,.03,0,.09-.03,.23-.02,.13,0,.26,.04,.38,.12,.45,.3,.51,1.01,.53,1.54,.01,.3,.05,1.02,.06,1.23,.03,.47,.15,.54,.41,.63,.14,.05,.27,.08,.47,.14,.59,.17,.94,.33,1.16,.55,.13,.13,.19,.28,.21,.41,.07,.51-.39,1.13-1.62,1.7-1.34,.62-2.96,.78-4.09,.65-.09-.01-.39-.04-.39-.04-.9-.12-1.41,1.04-.87,1.83,.35,.51,1.29,.85,2.24,.85,2.17,0,3.84-.93,4.46-1.73,.02-.02,.02-.03,.05-.07,.03-.05,0-.07-.03-.05-.51,.35-2.76,1.72-5.17,1.31,0,0-.29-.05-.56-.15-.21-.08-.66-.29-.71-.74,1.94,.6,3.16,.03,3.16,.03M3.77,9.72c-.68,.13-1.27,.51-1.64,1.04-.22-.18-.62-.53-.7-.67-.58-1.1,.64-3.25,1.48-4.46C5.03,2.63,8.31,.36,9.84,.77c.25,.07,1.07,1.02,1.07,1.02,0,0-1.52,.84-2.93,2.02-1.9,1.46-3.34,3.59-4.2,5.9m1.14,5.07c-.1,.02-.21,.02-.31,.02-1.02-.03-2.12-.94-2.23-2.03-.12-1.2,.49-2.12,1.58-2.34,.13-.03,.29-.04,.46-.03,.61,.03,1.5,.5,1.71,1.83,.18,1.17-.11,2.37-1.21,2.56m13.78-2.13s-.07-.24-.14-.49c-.08-.25-.16-.43-.16-.43,.31-.47,.32-.89,.28-1.12-.04-.29-.17-.55-.41-.8-.25-.26-.75-.52-1.46-.72-.08-.02-.35-.1-.37-.1,0-.02-.02-.88-.04-1.25-.01-.27-.04-.68-.16-1.1-.15-.56-.42-1.04-.76-1.36,.93-.96,1.5-2.02,1.5-2.93,0-1.75-2.15-2.27-4.79-1.18,0,0-.56,.24-.56,.24,0,0-1.01-.99-1.03-1.01C7.57-2.21-1.85,8.26,1.16,10.8l.66,.56c-.17,.44-.24,.95-.18,1.49,.07,.7,.43,1.37,1.02,1.89,.56,.49,1.29,.8,1.99,.8,1.17,2.7,3.85,4.36,6.99,4.45,3.37,.1,6.19-1.48,7.38-4.32,.08-.2,.41-1.1,.41-1.89s-.45-1.13-.74-1.13" style="fill:#757575;"/></g></svg>