<?xml version="1.0" encoding="UTF-8"?><svg id="a" xmlns="http://www.w3.org/2000/svg" xmlns:xlink="http://www.w3.org/1999/xlink" viewBox="0 0 20 20"><defs><clipPath id="b"><rect y=".23" width="20" height="19.54" style="fill:none;"/></clipPath></defs><g style="clip-path:url(#b);"><path d="M19.31,17.27h-7.5v-1.82h5.91v-.91h-5.91v-1.14h5.91v-.91h-5.91v-1.14h5.91v-.91h-5.91v-1.14h5.91v-.91h-5.91v-1.14h5.91v-.91h-5.91v-1.14h5.91v-.91h-5.91v-1.59h7.5v14.54ZM7.58,13.09c-.38,.2-.95,0-1.4,.02-.3-1.5-.65-3-.93-4.51-.27,1.47-.61,2.92-.92,4.38-.44-.02-.87-.05-1.31-.08-.38-2-.82-3.98-1.17-5.99,.39-.02,.78-.03,1.17-.05,.23,1.45,.5,2.89,.7,4.34,.32-1.49,.65-2.97,.97-4.46,.43-.02,.86-.04,1.3-.07,.3,1.53,.61,3.07,.94,4.59,.26-1.58,.54-3.15,.82-4.72,.45-.02,.91-.04,1.36-.07-.51,2.2-.96,4.42-1.52,6.61M19.98,2.93c.05-.52-.36-.92-.88-.87-2.43-.04-4.86,0-7.29-.01V.23h-1.36C6.97,.85,3.48,1.44,0,2.05,0,7.35,0,12.65,0,17.95c3.46,.61,6.93,1.19,10.39,1.82h1.42v-1.82c2.27,0,4.55,0,6.82,0,.39-.02,.82,.01,1.15-.22,.27-.41,.2-.92,.22-1.37-.03-4.48,.02-8.95-.02-13.43" style="fill:#757575;"/></g></svg>