<?xml version="1.0" encoding="UTF-8"?><svg id="a" xmlns="http://www.w3.org/2000/svg" xmlns:xlink="http://www.w3.org/1999/xlink" viewBox="0 0 20 20"><defs><clipPath id="b"><rect y=".47" width="20" height="19.05" style="fill:none;"/></clipPath></defs><g style="clip-path:url(#b);"><path d="M17.87,11.56h-3.21v1.87h3.21v-1.87Zm1.28,5.22h-7.77v-1.03h2.6v-1.91h-2.6v-.42h2.6v-1.87h-2.6v-.5h2.6v-1.91h-2.6v-.53h2.6v-1.87h-2.6v-.5h2.6v-1.87h-2.6v-1.07h7.77v13.46Zm-11.46-3.62l-1.36-.08-1.04-2.48-1.12,2.32-1.28-.08,1.64-2.82-1.48-3.09,1.28-.08,.88,2.32h.16l.96-2.48,1.36-.08-1.72,3.28,1.72,3.24ZM19.36,2.46h-7.69c-.08,0-.16,0-.24,.04V.48L0,2.65v14.75l11.38,2.13v-1.94c.08,.04,.16,.04,.24,.04h7.69c.4,0,.68-.31,.68-.68V3.14c.04-.38-.28-.68-.64-.68m-1.48,11.39h-3.21v1.91h3.21v-1.91Zm0-9.49h-3.21v1.87h3.21v-1.87Zm0,4.8h-3.21v1.91h3.21v-1.91Zm0-2.4h-3.21v1.87h3.21v-1.87Z" style="fill:#757575;"/></g></svg>