<?xml version="1.0" encoding="UTF-8"?><svg id="a" xmlns="http://www.w3.org/2000/svg" xmlns:xlink="http://www.w3.org/1999/xlink" viewBox="0 0 20 20"><defs><clipPath id="b"><rect x=".03" width="19.94" height="20" style="fill:none;"/></clipPath></defs><g style="clip-path:url(#b);"><path d="M8.53,8.92c-.03,.19-.08,.37-.15,.55-.07,.17-.15,.33-.25,.48-.1,.15-.22,.29-.35,.42-.14,.14-.3,.26-.47,.36-.16,.1-.34,.18-.52,.25-.19,.07-.38,.11-.58,.14-.21,.03-.41,.04-.62,.03h-.8v2.89l-1.42-.09V5.85l2.38-.14c.41-.03,.83,0,1.22,.11,.33,.08,.64,.25,.9,.48,.25,.22,.44,.51,.55,.83,.19,.58,.23,1.2,.13,1.8m3.37,5.45l1.09,1.07,2.64-2.59-2.64-2.59-1.1,1.08V6.19h3.32v1.95h-1.22l-.25,.3,2.15,2.52,2.17-2.52-.27-.29h-1.16v-2.9c0-.26-.21-.48-.48-.48h-4.27v-1.43h7.12v13.33h-7.12v-2.29ZM19.02,2.38h-7.12V0L.03,2.09v15.83l11.87,2.09v-2.38h7.12c.52,0,.95-.43,.95-.95V3.33c0-.53-.43-.95-.95-.95" style="fill:#757575;"/><path d="M6.42,7.48c-.12-.11-.26-.19-.41-.23-.19-.05-.38-.07-.57-.06h-.66v2.56h.03s.63-.01,.63-.01c.19,0,.39-.02,.57-.08,.32-.1,.57-.34,.66-.66,.06-.18,.09-.37,.09-.56,0-.19-.03-.38-.09-.57-.05-.15-.14-.29-.25-.4" style="fill:#757575;"/></g></svg>