<?xml version="1.0" encoding="UTF-8"?><svg id="a" xmlns="http://www.w3.org/2000/svg" xmlns:xlink="http://www.w3.org/1999/xlink" viewBox="0 0 20 20"><defs><clipPath id="b"><rect y=".19" width="20" height="19.63" style="fill:none;"/></clipPath></defs><g style="clip-path:url(#b);"><path d="M10,19.36C4.74,19.36,.46,15.16,.46,10S4.74,.63,10,.63s9.54,4.2,9.54,9.37-4.28,9.37-9.54,9.37M10,.18C4.49,.18,0,4.59,0,10s4.49,9.82,10,9.82,10-4.4,10-9.82c0-5.41-4.49-9.82-10-9.82m7.53,5.78c.04,.27,.06,.56,.06,.87,0,.85-.16,1.81-.65,3.02l-2.62,7.44c2.55-1.46,4.27-4.17,4.27-7.28,0-1.46-.38-2.84-1.05-4.04m-7.38,4.78l-2.57,7.34c.77,.22,1.58,.34,2.42,.34,1,0,1.96-.17,2.85-.48-.02-.04-.04-.07-.06-.12l-2.64-7.09Zm5.64-1.16c0-1.04-.38-1.76-.71-2.32-.44-.69-.84-1.28-.84-1.97,0-.77,.6-1.49,1.44-1.49,.04,0,.07,0,.11,0-1.53-1.37-3.56-2.21-5.79-2.21-3,0-5.63,1.51-7.17,3.8,.2,0,.39,0,.55,0,.9,0,2.29-.11,2.29-.11,.46-.03,.52,.64,.05,.69,0,0-.46,.05-.98,.08l3.12,9.12,1.88-5.53-1.34-3.59c-.46-.03-.9-.08-.9-.08-.46-.03-.41-.72,.05-.69,0,0,1.42,.11,2.26,.11,.9,0,2.29-.11,2.29-.11,.46-.03,.52,.64,.05,.69,0,0-.46,.05-.98,.08l3.1,9.05,.86-2.81c.37-1.16,.65-2,.65-2.72m-14.37,.43c0,3.33,1.97,6.21,4.83,7.58L2.16,6.57c-.48,1.05-.74,2.21-.74,3.43" style="fill:#757575;"/></g></svg>