<?xml version="1.0" encoding="UTF-8"?><svg id="a" xmlns="http://www.w3.org/2000/svg" viewBox="0 0 20 20"><path d="M16.66,7.82s0,0,0,0c0,0,0,0,0,0,0,0,0,0,0,0h0c-.08-.11-.16-.21-.26-.31h0c.09,.1,.18,.2,.26,.31,0,0,0,0,0,0Z" style="fill:#757575;"/><path d="M14.14,7.39c.29-.27,.67-.5,1.08-.5,.32,0,.64,.13,.93,.36h0s.05,.05,.08,.07c.02,.01,.03,.03,.05,.04,.04,.04,.08,.08,.12,.12h0s0,0,0,0c-.31-.89-.72-1.23-1.29-1.23-.75,0-1.48,.77-1.71,2.19,0,.01-.01,.02-.02,.03,0-.01,.01-.02,.02-.03,.2-.38,.44-.76,.75-1.06Z" style="fill:#757575;"/><polygon points="13.37 8.51 13.36 8.51 13.36 8.51 13.37 8.51 13.37 8.51" style="fill:#d2d2d2;"/><polygon points="13.37 8.51 13.37 8.51 13.36 8.51 13.37 8.51 13.37 8.51" style="fill:#d2d2d2;"/><path d="M16.67,7.85s0-.02,0-.03c0,.01,0,.02,.01,.03h0Z" style="fill:#d2d2d2;"/><rect x="16.4" y="7.5" width="0" height="0" transform="translate(-.5 13.79) rotate(-45)" style="fill:#d2d2d2;"/><path d="M13.38,8.49s0,.01-.01,.02c0,0,0,0,0,0,0,0,0,0,0,0,0,0,0-.01,0-.02Z" style="fill:#d2d2d2;"/><polygon points="3.67 11.08 3.68 11.07 3.68 11.06 3.68 11.07 3.67 11.08" style="fill:#757575;"/><polygon points="5.65 8.28 5.65 8.28 5.65 8.28 5.65 8.28 5.65 8.28" style="fill:#bfbfbf;"/><path d="M14.61,18.44c.04,.2,.05,.24,.06,.24,.12-.06,.24-.13,.35-.19-.14-.14-.29-.28-.45-.41l.04,.36" style="fill:#757575;"/><path d="M5.86,17.74s.01,0,.02-.01h-.02s0,0,0,.01" style="fill:#d2d2d2;"/><path d="M14.14,17.73h0s0,0,0,0" style="fill:#bfbfbf;"/><path d="M14.29,18.87c-.09-.37-.09-.76-.11-1.14,0,0-.07-.03-.07-.03h-4.12s0,.01,0,.01c-.02,0-4.15,0-4.15,0-.01,.38-.09,.84-.13,1.16,1.3,.61,2.75,.95,4.29,.95h0c1.54,0,2.99-.34,4.29-.95Z" style="fill:#757575;"/><path d="M16.54,9.94s0,0,0,0c0,0,0,0,0,0h0s0,.08,0,.12c0,0,0,.01,0,.02h0s0,.02,0,.03c0,.04,0,.08,0,.11h0s0,0,0,0c0,0,0,0,0,0,0,.04-.01,.08-.02,.12h0s0,0,0,0h0s.26-.27,.26-.27l-.26-.27s.02,.08,.02,.12" style="fill:#757575;"/><path d="M16.16,10c-.08,0-.15-.11-.15-.25s.07-.25,.15-.25,.15,.11,.15,.25-.07,.25-.15,.25m.38,.24s0-.01,0-.02c0-.04,0-.07,0-.11,0,0,0-.02,0-.03,0,0,0-.02,0-.02,0-.04,0-.08,0-.12,0,0,0,0,0-.01,0-.04-.01-.08-.02-.12,0-.01,0-.02-.01-.04-.02-.08-.06-.14-.09-.2-.02-.02-.03-.04-.05-.06-.02-.02-.03-.03-.05-.05,0,0-.01,0-.02-.01-.02-.01-.04-.03-.07-.03-.02,0-.05-.01-.07-.01-.02,0-.05,0-.07,.01-.02,0-.05,.02-.07,.03,0,0-.01,0-.02,.01-.03,.03-.06,.05-.08,.09,0,0-.01,.02-.02,.02-.04,.06-.07,.12-.09,.2h0s-.02,.08-.03,.12c0,.01,0,.02,0,.04,0,.04,0,.09-.01,.13,0,0,0,.01,0,.02h0c0,.37,.18,.68,.4,.68,.04,0,.08,0,.11-.03,.02-.01,.04-.02,.06-.04,0,0,.02-.01,.02-.02,.02-.02,.04-.04,.05-.06,.01-.02,.02-.03,.03-.05,0-.01,.01-.02,.02-.03,.01-.02,.02-.04,.03-.06,0,0,0-.02,.01-.02,.01-.03,.02-.06,.03-.1,0-.04,.02-.08,.02-.12Z" style="fill:#757575;"/><path d="M16.16,9.49c-.08,0-.15,.11-.15,.25s.07,.25,.15,.25,.15-.11,.15-.25-.07-.25-.15-.25" style="fill:#fff;"/><path d="M15.79,9.78c.02-.08,.06-.14,.09-.2,0,0,.01-.02,.02-.02,.02-.03,.05-.06,.08-.09,0,0,.01,0,.02-.01,.02-.01,.04-.03,.07-.03,.02,0,.05-.01,.07-.01s.05,0,.07,.01c.03,0,.05,.02,.07,.03,0,0,.02,0,.02,.01,.02,.01,.04,.03,.05,.05,.02,.02,.03,.04,.05,.06,.04,.06,.07,.12,.09,.2l-.36-1.6-.36,1.6" style="fill:#757575;"/><polyline points="13.37 8.51 13.36 8.51 13.37 8.51" style="fill:#d2d2d2;"/><path d="M10.67,9.18s-.06,0-.09,0c.03,0,.06,0,.09,0h0Z" style="fill:none;"/><path d="M10.49,9.16s-.06,0-.08,0c.03,0,.05,0,.08,0h0Z" style="fill:none;"/><path d="M9.63,9.71s0,0,0,0c-.01,.02-.02,.05-.03,.07,0,0,0,0,0,.01,0,0,0,0,0-.01,0-.03,.02-.05,.03-.07,0,0,0,0,0,0,.01-.03,.02-.05,.04-.08h0s0,0,0,0c-.01,.03-.03,.05-.04,.08Z" style="fill:none;"/><path d="M9.56,10.27s0,0,0,0h0c-.02-.07-.01-.15-.01-.22,0,.07,0,.15,0,.22Z" style="fill:none;"/><path d="M10.19,9.79s-.02-.02-.02-.03c0,.01,.02,.02,.02,.03Z" style="fill:none;"/><path d="M10.49,9.27c-.07,0-.14,.03-.19,.06,.06-.04,.12-.06,.19-.06,.2,0,.35,.16,.35,.35,0,.14-.09,.27-.22,.32,.13-.05,.22-.18,.22-.32,0-.19-.16-.35-.35-.35Z" style="fill:none;"/><path d="M11.43,10.08h0s0-.07,0-.1h0s0-.06-.02-.09h0s-.02-.06-.02-.09h0s-.02-.06-.03-.09h0s-.03-.06-.04-.08c-.05-.08-.1-.15-.17-.21h0s-.64-1.95-.64-1.95h0s-.65,1.95-.65,1.95h0s0,0,0,0l-2.73,.66h0l2.7,.65c.06,.07,.14,.12,.22,.17h0s.05,.03,.08,.04c0,0,0,0,0,0,.02,.01,.05,.02,.08,.03,0,0,0,0,.01,0,.02,0,.05,.01,.07,.02,0,0,.01,0,.02,0,.02,0,.05,0,.07,.01,0,0,.02,0,.02,0,.16,.02,.32,0,.46-.07,.17-.07,.31-.19,.41-.33,.11-.15,.16-.33,.16-.52,0,0,0,0,0,0h0s0,0,0,0h0Zm-.81-.14s-.09,.03-.14,.03c-.13,0-.24-.07-.3-.18,0-.01-.02-.02-.02-.03-.02-.04-.03-.09-.03-.13,0-.12,.07-.22,.16-.28,.06-.04,.12-.06,.19-.06,.2,0,.35,.16,.35,.35,0,.14-.09,.27-.22,.32Z" style="fill:#757575;"/><path d="M10.19,9.79c.06,.1,.17,.18,.3,.18h0s.1,0,.14-.03c-.04,.02-.09,.03-.14,.03-.13,0-.24-.07-.3-.18Z" style="fill:#757575;"/><path d="M10.29,9.34c-.09,.06-.16,.16-.16,.28,0,.05,.01,.09,.03,.14-.02-.04-.03-.09-.03-.13,0-.12,.07-.22,.16-.28Z" style="fill:#757575;"/><path d="M16.15,10.76s.08-.01,.11-.03c.02-.01,.04-.02,.06-.04,0,0,.01-.01,.02-.02,.02-.02,.04-.04,.05-.06,.01-.01,.02-.03,.03-.05,0-.01,.01-.02,.02-.03,.01-.02,.02-.04,.03-.06,0,0,0-.02,.01-.03,.01-.03,.02-.06,.03-.1h0s.24-.27,.24-.27h0s0,0,0,0h0s-.25-.27-.25-.27c0-.01,0-.03-.01-.04l-.36-1.6h0s-.36,1.6-.36,1.6c0,0,0,0,0,.01-.01,.04-.02,.07-.03,.11,0,.01,0,.02,0,.04,0,.04,0,.09-.01,.13,0,0,0,.01,0,.02h0c0,.37,.18,.68,.4,.68Z" style="fill:#757575;"/><path d="M10,.19C4.48,.19,0,4.58,0,10,0,12.97,1.35,15.63,3.47,17.43c.68-.76,1.5-1.39,2.4-1.87-.51-.32-1.65-1.58-2.3-2.98-.47-1.01-.57-2.24-.57-2.56,0-3.8,3.14-6.88,7.01-6.88,3.09,0,5.71,1.96,6.65,4.68v.04s.01,0,.01,0c.24,.7,.35,1.43,.35,2.16,0,.02,0,.05,0,.07h0c0,.72-.13,1.44-.37,2.13-.13-.18-.27-.35-.41-.53l-.04-.05c-.13-.16-.26-.33-.39-.49l-.02-.03c-.14-.17-.28-.34-.42-.51-.15-.18-.3-.35-.45-.52h0s0,0,0,0c0,0-.01-.02-.03-.03-.09-.1-.18-.21-.28-.31-.11-.12-.22-.24-.33-.35-.06-.06-.12-.13-.19-.19-.06-.06-.12-.12-.18-.18-.13-.12-.26-.25-.39-.37-.06-.05-.12-.1-.18-.16,0,0,0,0,0,0,0,0,0,0,0,0h0s0,0,0,0h0s0,0,0,0c-.02-.02-.05-.04-.07-.07-.07-.07-.15-.13-.23-.2-.23-.19-.47-.36-.72-.52h0s0,0,0,0c0-.02-.02-.03-.02-.04h0c-.3-.6-.69-.93-1.27-1.27-.56-.33-1.21-.52-1.86-.52-1.63,0-3.08,.91-3.53,2.38,.43-.36,.9-.66,1.41-.89,.59-.27,1.23-.43,1.89-.48,.02,0,.04,0,.06,0,.12,0,.25-.01,.38-.01,.37,0,.75,.04,1.11,.11h0c.26,.06,.71,.18,1.04,.32,.14,.06,.28,.12,.42,.19,.01,0,.02,.01,.03,.02h0s.04,.03,.04,.03h0l.06,.03h0c.08,.05,.16,.09,.23,.13h0s0,0,0,0c.01,.21,.02,.41,.02,.62v.07c0,.08,0,.16,0,.24,0,.1,0,.21-.01,.31,0,.08,0,.15-.02,.23,0,0,0,.02,0,.02-.02,.29-.06,.57-.11,.86h0l-.09,.43c-.19,.77-.59,1.47-.91,2.19-.09,.19-.17,.38-.24,.58l-.02,.06c-.06,.17-.13,.36-.19,.57-.03-.01-.05-.02-.08-.03-1.28-.48-2.13-1.13-2.13-1.13,0,0,.66,.84,1.77,1.63,.1,.07,.21,.14,.32,.2-.03,.47,.1,.92,.6,1.23-.16-.42-.32-.84-.45-1.26,.33,.03,.66,.08,.98,.15,.24,.05,.48,.11,.71,.18,.19,.06,.37,.12,.56,.19,.16,.06,.33,.12,.49,.19,1.15,.5,2.18,1.25,3.01,2.18,2.12-1.8,3.47-4.46,3.47-7.43C20,4.58,15.52,.19,10,.19Z" style="fill:#757575;"/><path d="M8.95,6.91s.04,0,.05,0c.13,0,.25-.01,.38-.01,.38,0,.75,.04,1.11,.11,.25,.06,.71,.18,1.04,.32,.14,.06,.28,.12,.42,.19l.03,.02h0s.03,.02,.04,.03h0s.06,.04,.06,.04h0c.09,.05,.18,.1,.22,.13h.01s0,0,0,0c0-.02-.02-.03-.02-.04h0c-.3-.6-.77-1.1-1.34-1.44-.56-.33-1.21-.52-1.86-.52-1.63,0-3,1.07-3.45,2.55,.43-.36,.9-.66,1.41-.88,.59-.27,1.23-.43,1.89-.48" style="fill:#757575;"/><path d="M13.13,16.12s-.1-.08-.23-.22c-.06-.07-.12-.14-.17-.21-.02-.02-.03-.05-.05-.07-.05-.08-.09-.17-.13-.26-.05-.1-.05-.17-.08-.27-.02-.07-.04-.15-.05-.22-.02-.12-.03-.24-.02-.36,0-.07,0-.14,.02-.22,.01-.07,.03-.15,.04-.22,.06-.22,.15-.46,.31-.71l.04-.09c.05-.08,.06-.08,.11-.16,.67-1.11,1.03-1.95,.85-3.24-.02-.13-.04-.26-.07-.4-.02,.09-.03,.19-.05,.28,0,.03-.02,.06-.03,.08-.29,.84-.75,1.46-1.41,2.17-.09,.1-.18,.19-.28,.29-.17,.17-.34,.34-.51,.51-.07,.07-.14,.14-.22,.21-.07,.07-.15,.21-.25,.31-.06,.17-.13,.36-.19,.57-.03-.01-.05-.02-.08-.03-1.28-.49-2.13-1.13-2.13-1.13,0,0,.66,.84,1.77,1.63,.1,.07,.21,.14,.32,.2-.05,.71,.27,1.39,1.72,1.6,.24,.04,.49,.03,.75,0,0,0,.01,0,.01-.01,0,0,.01-.02,.01-.02" style="fill:#757575;"/><path d="M14.14,7.39c.29-.27,.67-.5,1.08-.5,.32,0,.64,.13,.93,.36h0s.05,.05,.08,.07c.02,.01,.03,.03,.05,.04,.04,.04,.08,.08,.12,.12h0s0,0,0,0h0c-.31-.9-.81-1.48-1.38-1.48-.75,0-1.39,1.02-1.62,2.44h0c.2-.38,.44-.76,.75-1.06" style="fill:#757575;"/><path d="M12.35,14.29c1.28,.2,3.18,.17,5.14-.73,.05-.02,.1,.04,.15,.01,0,0-1.35,1.35-2.95,2.11-.05,.02-.09,.05-.14,.07-.15,.07-.31,.13-.47,.19-.31,.11-.63,.19-.94,.23-.01,0-.03,0-.04,0,0,0,0-.01,0-.02h0s-.1-.09-.23-.23c-.06-.07-.12-.14-.17-.21-.07-.1-.13-.21-.19-.32-.04-.09-.08-.19-.11-.29-.06-.19-.08-.39-.07-.58,0-.07,.01-.14,.02-.22h.01" style="fill:#757575;"/><path d="M11.44,12.86c.17-.17,.34-.33,.51-.51,.09-.09,.19-.19,.28-.29,.66-.7,1.14-1.36,1.43-2.2,0-.02,.01-.05,.02-.08h0s.01-.08,.02-.12c0-.03,.09-.08,.09-.11-.07-.37-.24-.75-.42-1.05,0,0,0,0,0,0h0s-.05-.05-.07-.07c-.07-.07-.15-.13-.23-.2-.23-.19-.47-.36-.72-.52,.01,.21,.02,.41,.02,.62,0,.02,0,.05,0,.07,0,.08,0,.16,0,.24,0,.1,0,.21-.01,.31,0,.08,0,.15-.02,.23,0,0,0,.02,0,.02-.02,.29-.06,.57-.11,.86l-.09,.43c-.19,.77-.59,1.47-.91,2.19-.09,.19-.17,.38-.24,.58l-.02,.06c.08-.09,.17-.17,.26-.26,.07-.07,.15-.14,.22-.21" style="fill:#757575;"/><path d="M16.22,11.64c-.13-.16-.26-.33-.39-.49l-.02-.03c-.14-.17-.28-.35-.42-.52-.15-.17-.29-.35-.44-.52-.01-.01-.02-.02-.03-.03-.12-.14-.25-.28-.38-.41-.08-.08-.16-.17-.24-.25-.06-.06-.12-.13-.19-.19-.06-.06-.12-.12-.18-.18-.13-.12-.26-.25-.39-.37-.06-.05-.12-.1-.18-.16,0,0,0,0,0,0,.13,.36,.27,.72,.34,1.09,.02,.1,.04,.19,.05,.28,.18,1.29-.24,2.13-.91,3.24-.05,.08-.1,.16-.15,.24-.15,.25-.25,.49-.31,.71-.02,.07-.03,.14-.04,.22,1.31,.21,3.28,.25,5.3-.73,0,0-.4-.57-.99-1.36-.13-.18-.27-.35-.4-.52-.01-.02-.03-.03-.04-.05" style="fill:#757575;"/><g><path d="M11.38,16.56c-.45-.09-.91-.13-1.38-.13s-.93,.05-1.38,.13c-.5,.1-1.02,.24-1.47,.44l.55-1.77-.73-.17c-.16,.06-.33,.12-.48,.19l-.64,2.08h1.21s5.9,0,5.9,0l-.09-.3c-.47-.21-.97-.36-1.48-.46Z" style="fill:#757575;"/><path d="M4.98,18.48c.12,.07,.23,.13,.35,.19,.04-.2,.11-.47,.13-.67-.15,.13-.34,.34-.48,.48Z" style="fill:#757575;"/><path d="M13.52,15.25c-.16-.07-.32-.13-.48-.19l-.73,.17,.55,1.8,.09,.3h1.21l-.64-2.08Z" style="fill:#757575;"/></g></svg>