<?xml version="1.0" encoding="UTF-8"?><svg id="a" xmlns="http://www.w3.org/2000/svg" viewBox="0 0 20 20"><path d="M4.23,0h.9V.89h.83V0h.9V2.7h-.9v-.9h-.82v.9h-.91m3.81-1.8h-.79V0h2.49V.9h-.8v1.8h-.9M10.14,0h.94l.58,.95,.58-.95h.94V2.7h-.9V1.36l-.63,.97-.63-.97v1.34h-.88M13.62,0h.9V1.8h1.27v.89h-2.17" style="fill:#757575;"/><path d="M2.91,3.93l1.29,14.47,5.79,1.6,5.81-1.61,1.29-14.46H2.91Zm11.77,13.53l-4.69,1.31v-1.83h0s0,1.83,0,1.83l-4.69-1.31-1.11-12.34h5.79v1.77h0v-1.77h5.79l-1.11,12.34Z" style="fill:#757575;"/><polygon points="10 15.08 10 15.09 10 15.08 10 15.08" style="fill:#dadada;"/><rect x="10" y="16.93" width="0" height="0" style="fill:#dadada;"/><polygon points="10 15.09 10 15.08 10 15.08 10 15.09" style="fill:#fff;"/><rect x="10" y="6.89" width="0" height="1.77" style="fill:#fff;"/><polygon points="10 15.08 10 15.09 10 16.93 10 16.93 10 15.09 10 15.08" style="fill:#fff;"/><rect x="9.99" y="15.09" width="0" height="1.84" style="fill:#fff;"/><rect x="9.99" y="6.89" width="0" height="1.77" style="fill:#fff;"/><polygon points="9.99 8.66 14.22 8.66 14.38 6.89 9.99 6.89 9.94 6.89 5.55 6.89 6.03 12.25 9.99 12.25 9.99 12.25 10 12.25 10 12.25 12.18 12.25 11.97 14.55 10.01 15.08 8.03 14.55 7.91 13.14 6.13 13.14 6.38 15.92 10.01 16.94 10.01 16.93 10.01 16.93 10.01 16.92 13.62 15.92 14.11 10.48 10 10.48 10 10.48 9.99 10.48 7.66 10.48 7.49 8.66 9.94 8.66 9.99 8.66" style="fill:#757575;"/></svg>