<?xml version="1.0" encoding="UTF-8"?><svg id="a" xmlns="http://www.w3.org/2000/svg" viewBox="0 0 20 20"><path id="b" d="M6.25,0h2.15V.9h-1.25v.9h1.25v.9h-2.15V0Z" style="fill:#757575;"/><path id="c" d="M8.83,0h2.15V.78h-1.25v.16h1.25v1.8h-2.15v-.82h1.25v-.16h-1.25V0Z" style="fill:#757575;"/><path id="d" d="M11.41,0h2.15V.78h-1.25v.16h1.25v1.8h-2.15v-.82h1.25v-.16h-1.25V0Z" style="fill:#757575;"/><path d="M13.82,13.75c.09-.97,.18-2.01,.27-3.03l-.02,.24-.25,2.79Z" style="fill:#757575;"/><path d="M14.44,6.89l-.15,1.64c.05-.6,.1-1.16,.15-1.64Z" style="fill:#757575;"/><path d="M13.63,15.92c.01-.15,.03-.33,.04-.5l-.02,.2-.03,.3Z" style="fill:#757575;"/><path d="M2.92,3.93l1.29,14.46,5.79,1.61,5.8-1.61,1.29-14.46H2.92Zm7.08,14.84l-4.69-1.3-1.1-12.36h5.79v13.66Zm4.69-1.3l-4.69,1.3V5.11h5.79l-1.1,12.36Z" style="fill:#757575;"/><rect x="9.99" y="16.93" width="0" height="0" style="fill:#757575;"/><rect x="9.99" y="15.08" width="0" height="0" style="fill:#757575;"/><rect x="9.99" y="15.09" width="0" height="0" transform="translate(-4.26 3.93) rotate(-18.43)" style="fill:#757575;"/><path d="M10.04,6.89H5.6l.16,1.77h6.73l-.16,1.82H5.92l.16,1.77h6.1l-.21,2.3-1.96,.53-1.95-.53-.13-1.41h-1.78l.25,2.79,3.59,1h0s.02,0,.02,0h.02s0,0,0,0h0s0,0,0,0h0s3.59-1.01,3.59-1.01l.03-.3,.02-.2c.05-.51,.1-1.07,.15-1.68l.25-2.79,.02-.24c.07-.76,.13-1.5,.2-2.19l.15-1.64h-4.4Z" style="fill:#757575;"/><path d="M13.82,13.75c-.05,.61-.1,1.16-.15,1.68l.15-1.68Z" style="fill:#757575;"/><path d="M14.12,10.48l.17-1.95c-.06,.69-.13,1.42-.2,2.19l.02-.24Z" style="fill:#757575;"/><rect x="9.99" y="10.48" width="0" height="1.77" style="fill:#757575;"/><rect x="9.99" y="10.48" width="0" height="1.77" style="fill:#757575;"/><rect x="9.99" y="6.89" width="0" height="1.77" style="fill:#757575;"/><rect x="9.99" y="6.89" width="0" height="1.77" style="fill:#757575;"/><rect x="9.99" y="15.08" width="0" height="1.85" style="fill:#757575;"/><rect x="9.99" y="15.09" width="0" height="1.85" style="fill:#757575;"/></svg>