<?xml version="1.0" encoding="UTF-8"?><svg id="a" xmlns="http://www.w3.org/2000/svg" viewBox="0 0 20 20"><path d="M17.93,0H2.07C.93,0,0,.93,0,2.07v15.85C0,19.07,.93,20,2.07,20h15.85c1.14,0,2.07-.93,2.07-2.07V2.07c0-1.14-.93-2.07-2.07-2.07Zm-5.93,14.83h-1.38c-.06,0-.1,0-.12-.06l-.71-2.56-2.65-.02-.67,2.56c0,.06-.04,.11-.13,.11h-1.23c-.06,0-.1-.04-.06-.13L7.43,6.22c.06-.24,.08-.47,.06-.73,0-.06,.04-.06,.06-.06h1.73q.06,0,.1,.06l2.67,9.23c0,.06,0,.11-.06,.11Zm2.79-6.86v6.73c0,.06,0,.11-.1,.11h-1.29s-.08-.02-.1-.06V7.99h.02s.02-.09,.06-.11h1.31s.08,.02,.1,.06v.02Zm-.56-1.03h-.12c-.52-.04-.9-.34-.9-.9,0-.49,.4-.9,.87-.9s.87,.41,.87,.9c.04,.45-.29,.85-.73,.9Z" style="fill:#757575;"/><path d="M7.52,10.81h1.96c-.23-.96-.79-3.01-1-4.04-.17,.98-.63,2.69-.96,4.04Z" style="fill:#757575;"/></svg>