<?xml version="1.0" encoding="UTF-8"?><svg id="a" xmlns="http://www.w3.org/2000/svg" xmlns:xlink="http://www.w3.org/1999/xlink" viewBox="0 0 20 20"><defs><linearGradient id="b" x1="-28.44" y1="40.51" x2="69.97" y2="-37.6" gradientUnits="userSpaceOnUse"><stop offset="0" stop-color="#757575"/><stop offset="1" stop-color="#757575"/></linearGradient><linearGradient id="c" x1="2.09" y1="17.8" x2="21.73" y2="2.21" xlink:href="#b"/><linearGradient id="d" x1="2.67" y1="13.53" x2="20.4" y2="-.54" xlink:href="#b"/></defs><path d="M18.15,7.6c-.34-1.1-.39-2.45-.35-3.49,.04-1.08-.81-2.08-1.95-2.08H4.15c-1.14,0-1.99,1-1.95,2.08,.04,1.04-.01,2.39-.35,3.49-.34,1.1-.92,1.8-1.86,1.89v1.02c.94,.09,1.52,.79,1.86,1.89,.34,1.1,.39,2.45,.35,3.49-.04,1.08,.81,2.08,1.95,2.08H15.85c1.14,0,1.99-1,1.95-2.08-.04-1.04,.01-2.39,.35-3.49,.34-1.1,.91-1.8,1.85-1.89v-1.02c-.94-.09-1.51-.79-1.85-1.89Zm-7.71,6.63h-3.48V5.76h3.47c1.54,0,2.55,.83,2.55,2.11,0,.9-.68,1.7-1.55,1.84v.05c1.18,.13,1.97,.95,1.97,2.07,0,1.49-1.11,2.4-2.96,2.4Z" style="fill:url(#b);"/><path d="M10.08,10.37h-1.78v2.79h1.86c1.22,0,1.86-.49,1.86-1.4s-.66-1.39-1.94-1.39Z" style="fill:url(#c);"/><path d="M11.62,8.06c0-.79-.55-1.22-1.53-1.22h-1.79v2.53h1.51c1.17,0,1.81-.47,1.81-1.31Z" style="fill:url(#d);"/></svg>