<?xml version="1.0" encoding="UTF-8"?><svg id="a" xmlns="http://www.w3.org/2000/svg" viewBox="0 0 20 20"><path d="M0,0V20H20V0H0ZM10.89,15.6c0,1.95-1.14,2.83-2.81,2.83-1.5,0-2.38-.78-2.82-1.72l1.53-.93c.3,.52,.56,.97,1.21,.97s1.01-.24,1.01-1.18v-6.39h1.88v6.42Zm4.44,2.84c-1.75,0-2.87-.83-3.42-1.92l1.53-.89c.4,.66,.93,1.14,1.85,1.14,.78,0,1.28-.39,1.28-.93,0-.64-.51-.87-1.37-1.25l-.47-.2c-1.36-.58-2.26-1.3-2.26-2.83,0-1.41,1.07-2.48,2.75-2.48,1.19,0,2.05,.42,2.67,1.5l-1.46,.94c-.32-.58-.67-.81-1.21-.81s-.9,.35-.9,.81c0,.56,.35,.79,1.16,1.14l.47,.2c1.6,.68,2.5,1.38,2.5,2.95,0,1.69-1.33,2.62-3.11,2.62Z" style="fill:#757575;"/></svg>