<?xml version="1.0" encoding="UTF-8"?><svg id="a" xmlns="http://www.w3.org/2000/svg" viewBox="0 0 20 20"><path d="M4.81,15.58h-.77c-.03-1.3-.1-2.53-.23-3.67h0l-1.17,3.67h-.59l-1.17-3.67h0c-.09,1.1-.14,2.33-.16,3.67H0c.05-1.64,.16-3.18,.34-4.61h.96l1.11,3.39h0l1.12-3.39h.92c.2,1.68,.32,3.22,.36,4.61" style="fill:#757575;"/><path d="M8.16,12.18c-.31,1.71-.73,2.94-1.24,3.72-.4,.6-.84,.89-1.32,.89-.13,0-.28-.04-.47-.11v-.41c.09,.01,.2,.02,.32,.02,.22,0,.4-.06,.54-.18,.16-.15,.25-.32,.25-.51,0-.13-.06-.39-.19-.79l-.85-2.63h.76l.61,1.97c.14,.45,.19,.76,.17,.94,.33-.89,.56-1.86,.7-2.9h.73Z" style="fill:#757575;"/><polygon points="18.43 15.58 16.24 15.58 16.24 10.97 16.97 10.97 16.97 15.01 18.43 15.01 18.43 15.58" style="fill:#757575;"/><path d="M14.81,15.28c.08-.06,.15-.13,.21-.21,.36-.42,.54-1.05,.54-1.88,0-1.53-.6-2.29-1.8-2.29-.59,0-1.05,.19-1.37,.58-.36,.42-.54,1.05-.54,1.87s.16,1.41,.48,1.78c.29,.34,.73,.51,1.32,.51,.22,0,.42-.03,.6-.08l1.1,.64,.3-.52-.85-.42Zm-1.09-.2c-.37,0-.64-.14-.81-.42-.19-.3-.28-.78-.28-1.45,0-1.16,.35-1.74,1.06-1.74,.37,0,.64,.14,.81,.42,.19,.3,.28,.78,.28,1.43,0,1.17-.35,1.76-1.06,1.76Z" style="fill:#757575;"/><path d="M11.54,14.3c0,.39-.14,.71-.43,.96-.29,.25-.67,.38-1.15,.38-.45,0-.89-.14-1.31-.43l.2-.4c.36,.18,.69,.27,.99,.27,.28,0,.49-.06,.65-.18,.16-.12,.25-.29,.25-.51,0-.27-.19-.51-.54-.7-.32-.18-.97-.55-.97-.55-.35-.26-.53-.53-.53-.98,0-.37,.13-.68,.39-.9,.26-.23,.6-.35,1.01-.35s.82,.11,1.17,.34l-.18,.4c-.3-.13-.6-.19-.89-.19-.24,0-.42,.06-.55,.17-.13,.11-.21,.26-.21,.44,0,.27,.2,.51,.56,.71,.33,.18,.99,.56,.99,.56,.36,.25,.54,.53,.54,.97" style="fill:#757575;"/><path d="M19.35,9.43c-.45-.01-.79,.03-1.08,.16-.08,.03-.22,.03-.23,.14,.05,.04,.05,.12,.09,.18,.07,.11,.18,.26,.29,.34,.12,.09,.23,.18,.36,.26,.22,.13,.46,.21,.67,.35,.12,.08,.25,.18,.37,.26,.06,.04,.1,.12,.18,.14v-.02c-.04-.05-.05-.12-.09-.18l-.17-.16c-.16-.22-.36-.41-.58-.56-.18-.12-.57-.29-.64-.5h-.01c.12-.02,.27-.07,.38-.1,.19-.05,.36-.04,.56-.09,.09-.02,.18-.05,.27-.08v-.05c-.1-.1-.17-.23-.28-.33-.28-.25-.6-.48-.92-.69-.17-.11-.4-.18-.58-.28-.07-.03-.18-.05-.22-.11-.1-.12-.16-.28-.23-.43-.16-.31-.32-.65-.46-.97-.1-.22-.16-.43-.28-.63-.57-.95-1.2-1.52-2.16-2.08-.21-.12-.45-.17-.71-.23l-.42-.02c-.09-.04-.18-.15-.26-.2-.32-.2-1.14-.63-1.37-.06-.15,.36,.22,.72,.35,.9,.09,.13,.22,.27,.28,.42,.04,.09,.05,.2,.09,.3,.09,.25,.17,.52,.29,.75,.06,.12,.13,.24,.21,.34,.04,.06,.12,.09,.14,.19-.08,.11-.08,.28-.13,.42-.2,.63-.12,1.41,.16,1.87,.09,.14,.3,.45,.58,.33,.25-.1,.2-.42,.27-.7,.02-.07,0-.11,.04-.16h0c.08,.17,.16,.32,.23,.47,.17,.27,.47,.56,.72,.75,.13,.1,.24,.27,.41,.33v-.02h-.01s-.08-.07-.13-.11c-.1-.1-.21-.22-.29-.33-.23-.31-.44-.66-.62-1.01-.09-.17-.17-.36-.24-.53-.03-.07-.03-.17-.09-.2-.08,.12-.21,.23-.27,.38-.11,.24-.12,.54-.16,.84h-.02c-.18-.03-.24-.22-.31-.37-.17-.4-.19-1.03-.05-1.49,.04-.12,.21-.48,.14-.6-.03-.11-.15-.17-.21-.25-.07-.11-.15-.24-.2-.36-.13-.31-.2-.66-.34-.97-.07-.15-.18-.3-.28-.43-.11-.15-.22-.26-.31-.43-.03-.06-.07-.16-.02-.23,.01-.04,.03-.06,.08-.07,.07-.06,.28,.02,.35,.05,.21,.08,.38,.16,.55,.28,.08,.06,.16,.16,.26,.19h.12c.18,.04,.38,.01,.55,.06,.3,.09,.56,.23,.8,.38,.73,.46,1.33,1.12,1.74,1.91,.07,.13,.09,.25,.16,.38,.12,.27,.26,.55,.38,.82,.12,.26,.23,.53,.4,.75,.08,.12,.42,.18,.57,.24,.11,.05,.28,.09,.38,.16,.19,.12,.38,.25,.56,.38,.09,.07,.37,.21,.38,.32" style="fill:#757575;"/><path d="M13.67,4.59c-.08,0-.15,0-.23,.03h0s.01,.01,.01,.01c.04,.09,.12,.15,.18,.23,.04,.09,.08,.18,.13,.27h.01c.08-.07,.12-.16,.12-.29-.03-.04-.04-.08-.07-.12-.03-.06-.11-.08-.15-.13" style="fill:#757575;"/><polygon points="19.88 15.58 20 15.58 20 15.02 19.83 15.02 19.68 15.4 19.53 15.02 19.36 15.02 19.36 15.58 19.47 15.58 19.47 15.15 19.48 15.15 19.64 15.58 19.72 15.58 19.88 15.15 19.88 15.58 19.88 15.58" style="fill:#757575;"/><polygon points="18.95 15.58 19.08 15.58 19.08 15.11 19.24 15.11 19.24 15.02 18.79 15.02 18.79 15.11 18.95 15.11 18.95 15.58 18.95 15.58" style="fill:#757575;"/></svg>