<?xml version="1.0" encoding="UTF-8"?><svg id="a" xmlns="http://www.w3.org/2000/svg" viewBox="0 0 20 20"><path d="M19.7,4.52s.01,.05,.01,.08v4.29c0,.11-.06,.22-.16,.27l-3.6,2.07v4.11c0,.11-.06,.22-.16,.27l-7.52,4.33s-.04,.02-.05,.02c0,0-.01,0-.02,0-.05,.01-.11,.01-.16,0,0,0-.02,0-.02-.01-.02,0-.04-.01-.05-.02L.44,15.63c-.1-.06-.16-.16-.16-.27V2.48s0-.06,.01-.08c0,0,0-.02,.01-.03,0-.02,.01-.03,.02-.05,0-.01,.01-.02,.02-.03,0-.01,.02-.03,.03-.04,0,0,.02-.02,.03-.02,.01,0,.02-.02,.03-.03h0L4.2,.04c.1-.06,.22-.06,.31,0l3.76,2.16h0s.02,.02,.03,.03c.01,0,.02,.01,.03,.02,.01,.01,.02,.02,.03,.04,0,0,.02,.02,.02,.03,0,.02,.01,.03,.02,.05,0,0,0,.02,.01,.03,0,.03,.01,.05,.01,.08V10.52l3.13-1.8V4.61s0-.06,.01-.08c0,0,0-.02,.01-.03,0-.02,.01-.03,.02-.05,0-.01,.01-.02,.02-.03,0-.01,.02-.03,.03-.04,0,0,.02-.02,.03-.02,.01,0,.02-.02,.03-.03h0l3.76-2.16c.1-.06,.22-.06,.31,0l3.76,2.16s.02,.02,.04,.03c0,0,.02,.01,.03,.02,.01,.01,.02,.02,.03,.04,0,0,.02,.02,.02,.03,0,.02,.01,.03,.02,.05,0,0,0,.02,.01,.03Zm-.62,4.19v-3.57l-1.32,.76-1.82,1.05v3.57l3.13-1.8h0Zm-3.76,6.46v-3.57l-1.79,1.02-5.11,2.91v3.61s6.89-3.97,6.89-3.97ZM.91,3.02V15.18l6.89,3.97v-3.61l-3.6-2.04h0s0,0,0,0c-.01,0-.02-.02-.03-.03,0,0-.02-.01-.03-.02h0s-.02-.02-.03-.03c0-.01-.02-.02-.02-.03h0s-.01-.03-.02-.04c0-.01-.01-.02-.01-.04h0s0-.03,0-.05c0-.01,0-.02,0-.04h0V4.82l-1.82-1.05-1.32-.76H.91ZM4.36,.67L1.23,2.48l3.13,1.8,3.13-1.8L4.36,.67h0Zm1.63,11.25l1.82-1.05V3.02l-1.32,.76-1.82,1.05v7.86l1.32-.76ZM15.64,2.8l-3.13,1.8,3.13,1.8,3.13-1.8-3.13-1.8Zm-.31,4.15l-1.82-1.05-1.32-.76v3.57l1.82,1.05,1.32,.76v-3.57Zm-7.21,8.04l4.59-2.62,2.3-1.31-3.13-1.8-3.6,2.07-3.28,1.89s3.13,1.77,3.13,1.77Z" style="fill:#757575; fill-rule:evenodd;"/></svg>