<?xml version="1.0" encoding="UTF-8"?><svg id="a" xmlns="http://www.w3.org/2000/svg" viewBox="0 0 20 20"><path d="M2.89,15.71c-.24,.2-.57,.26-.86,.14l-1.51-.64c-.31-.13-.51-.43-.51-.76V5.56c0-.33,.2-.64,.51-.76l1.51-.62c.29-.12,.62-.07,.86,.14l.34,.28c-.21-.15-.49-.1-.64,.11-.06,.08-.09,.17-.09,.27V15.04c0,.25,.2,.46,.46,.46,.1,0,.19-.03,.27-.09l-.34,.29Z" style="fill:#757575;"/><path d="M.51,15.21c-.31-.13-.51-.43-.51-.76v-.07c0,.27,.22,.48,.49,.48,.13,0,.26-.06,.35-.15L13.75,.42c.37-.37,.94-.47,1.42-.24l4.12,1.98c.43,.21,.71,.65,.71,1.13v.05c0-.44-.35-.79-.79-.79-.18,0-.36,.06-.5,.18L3.23,15.42l-.34,.29c-.24,.2-.57,.26-.86,.14l-1.51-.64Z" style="fill:#757575;"/><path d="M.51,4.79c-.31,.13-.51,.43-.51,.76v.07c0-.27,.22-.48,.49-.48,.13,0,.26,.06,.35,.15l12.92,14.28c.37,.37,.94,.47,1.42,.24l4.12-1.98c.43-.21,.71-.65,.71-1.13v-.05c0,.44-.35,.79-.79,.79-.18,0-.36-.06-.5-.18L3.23,4.58l-.34-.29c-.24-.2-.57-.25-.86-.13l-1.51,.62Z" style="fill:#757575;"/><path d="M15.17,19.83c-.48,.23-1.05,.13-1.42-.24,.29,.29,.75,.28,1.04,0,.14-.14,.21-.32,.21-.52V.94c0-.41-.33-.73-.73-.74-.19,0-.38,.08-.52,.21,.37-.37,.94-.47,1.42-.24l4.12,1.98c.43,.21,.71,.65,.71,1.13v13.43c0,.48-.28,.92-.71,1.13l-4.12,1.98Z" style="fill:#757575;"/></svg>