<?xml version="1.0" encoding="UTF-8"?><svg id="a" xmlns="http://www.w3.org/2000/svg" viewBox="0 0 20 20"><path d="M1.43,6.84h1.08l-.17,.64c-.03,.09-.07,.16-.14,.21-.07,.05-.15,.08-.24,.08h-.5c-.11,0-.22,.03-.3,.1-.09,.07-.15,.16-.18,.27-.02,.09-.02,.17,0,.24,.02,.08,.05,.14,.09,.2,.04,.06,.1,.11,.17,.14,.07,.04,.15,.05,.23,.05h.31c.06,0,.1,.02,.14,.07,.04,.05,.05,.1,.03,.16l-.19,.71h-.33c-.23,0-.44-.05-.63-.15-.19-.1-.35-.23-.48-.4-.13-.17-.21-.35-.26-.57-.05-.21-.04-.43,.02-.65l.02-.07c.04-.15,.11-.29,.19-.42,.09-.13,.19-.24,.31-.33,.12-.09,.25-.16,.4-.21,.15-.05,.3-.08,.46-.08" style="fill:#757575;"/><path d="M1.97,9.72l.94-3.52c.03-.09,.07-.16,.14-.21,.07-.05,.15-.08,.24-.08h1c.23,0,.44,.05,.63,.15,.19,.1,.35,.23,.48,.4,.13,.17,.21,.35,.26,.57,.05,.21,.04,.43-.02,.65l-.02,.07c-.04,.15-.11,.29-.19,.42-.09,.13-.19,.24-.31,.33-.12,.09-.25,.16-.4,.21-.15,.05-.3,.08-.46,.08h-.86l.17-.64c.03-.09,.07-.16,.14-.21,.07-.05,.15-.08,.24-.08h.28c.11,0,.22-.03,.31-.11,.09-.07,.15-.16,.18-.27,.02-.08,.02-.16,0-.23-.02-.08-.05-.14-.09-.2-.04-.06-.1-.11-.17-.14-.07-.04-.15-.05-.23-.05h-.53l-.7,2.59c-.03,.09-.07,.16-.14,.21-.07,.05-.15,.08-.24,.08h-.66Z" style="fill:#757575;"/><path d="M7.92,7.84v-.05s.02-.05,0-.06c-.01-.02-.03-.03-.06-.03h-1.55c-.07,0-.13-.01-.18-.04-.05-.03-.1-.07-.13-.11-.04-.05-.06-.1-.07-.16-.01-.06-.01-.12,0-.19l.1-.36h2.1c.13,0,.25,.03,.36,.09,.11,.06,.2,.13,.27,.22,.07,.09,.12,.2,.15,.32,.03,.12,.02,.24,0,.37l-.38,1.4c-.04,.14-.12,.26-.23,.35-.12,.09-.25,.13-.4,.13h-1.55c-.14,0-.26-.03-.38-.09-.11-.06-.21-.14-.28-.23-.07-.1-.12-.21-.15-.33-.03-.13-.03-.25,0-.38l.02-.07c.02-.09,.06-.17,.11-.25,.05-.08,.11-.14,.18-.2,.07-.05,.15-.1,.23-.13,.09-.03,.18-.05,.27-.05h1.3l-.1,.36c-.03,.09-.07,.16-.14,.21-.07,.05-.15,.08-.24,.08h-.58c-.05,0-.09,.03-.11,.08,0,.04,0,.07,.02,.09,.02,.03,.05,.04,.09,.04h.94s.07,0,.09-.03c.03-.02,.04-.04,.05-.08v-.04s.24-.86,.24-.86Z" style="fill:#757575;"/><path d="M10.7,6.84c.23,0,.44,.05,.64,.15,.19,.1,.35,.23,.48,.4,.13,.17,.21,.35,.26,.57,.05,.21,.04,.43-.02,.65l-.24,.9c-.02,.06-.05,.11-.1,.15-.05,.04-.11,.06-.17,.06h-.52c-.06,0-.11-.02-.14-.07-.04-.05-.04-.1-.03-.16l.29-1.08c.02-.08,.02-.16,0-.23-.02-.08-.05-.14-.09-.2-.04-.06-.1-.11-.17-.14-.07-.04-.15-.05-.23-.05h-.53l-.46,1.73c-.02,.06-.05,.11-.1,.15-.05,.04-.11,.06-.18,.06h-.51c-.06,0-.1-.02-.14-.07-.04-.05-.05-.1-.03-.16l.71-2.65h1.3Z" style="fill:#757575;"/><path d="M13.51,7.75s-.07,.07-.08,.12l-.21,.81s0,.09,.02,.12c.03,.04,.07,.06,.11,.06h1.98l-.15,.57c-.03,.09-.07,.16-.14,.21-.07,.05-.15,.08-.24,.08h-1.8c-.13,0-.25-.03-.36-.08-.11-.06-.2-.13-.27-.22-.07-.09-.12-.2-.15-.32-.03-.12-.02-.24,.01-.37l.29-1.08c.03-.12,.08-.23,.15-.32,.07-.1,.15-.18,.24-.25,.09-.07,.19-.12,.31-.16,.11-.04,.23-.06,.35-.06h1.27c.13,0,.25,.03,.36,.09,.11,.06,.2,.13,.27,.22,.07,.09,.12,.2,.15,.32,.03,.12,.02,.24,0,.37l-.09,.32c-.04,.14-.12,.26-.23,.35-.12,.09-.25,.13-.39,.13h-1.44l.1-.35c.02-.09,.07-.16,.14-.21,.07-.05,.15-.08,.24-.08h.58c.05,0,.09-.03,.11-.08l.02-.07s0-.07-.02-.1c-.02-.03-.05-.04-.09-.04h-.89s-.09,.02-.13,.05" style="fill:#757575;"/><path d="M15.33,9.72l.96-3.6c.02-.06,.05-.12,.1-.16,.05-.04,.11-.06,.18-.06h.51c.06,0,.11,.02,.15,.07,.04,.05,.05,.1,.03,.16l-.72,2.66c-.04,.14-.09,.27-.17,.38-.08,.11-.17,.21-.28,.29-.11,.08-.23,.14-.36,.19-.13,.05-.27,.07-.41,.07" style="fill:#757575;"/><path d="M2.88,12.29s.02,.02,.04,.02h.45s.04-.01,.05-.04l.07-.27s0-.03,0-.05c0-.01-.02-.02-.04-.02h-.45s-.04,.01-.05,.04l-.07,.27s0,.03,0,.05m.53,1.08l.1-.1-.09-.19s-.05-.06-.1-.06h-.79s-.04,.01-.05,.04l-.07,.27s0,.03,0,.05c0,.01,.02,.02,.04,.02h.87s.05,0,.08-.03m1.59-.68s0,.06-.02,.09l-.59,.58,.25,.56s.02,.09,0,.13c-.03,.04-.06,.06-.12,.06h-.5s-.08-.01-.12-.03c-.04-.02-.06-.05-.08-.09l-.03-.06c-.06,.06-.12,.1-.19,.13-.07,.03-.15,.05-.24,.05h-1.13c-.1,0-.19-.02-.27-.06-.08-.04-.15-.1-.2-.17-.05-.07-.09-.15-.11-.24-.02-.09-.02-.18,0-.28l.16-.6c.03-.09,.07-.17,.13-.24,.06-.07,.13-.12,.21-.15-.02-.08-.02-.17,.01-.26l.12-.44c.02-.06,.04-.12,.08-.18,.04-.05,.08-.1,.13-.14,.05-.04,.11-.07,.17-.09,.06-.02,.13-.03,.19-.03h.79c.1,0,.19,.02,.27,.06,.08,.04,.15,.1,.2,.17,.05,.07,.09,.15,.11,.24,.02,.09,.02,.18,0,.28l-.12,.44s-.02,.06-.03,.09c-.01,.03-.03,.06-.04,.08,0,.01,.02,.03,.03,.04,0,.02,.01,.03,.02,.05h0s.01,.04,.02,.06h0s.05-.05,.05-.05c.04-.04,.09-.06,.14-.06h.61s.06,.02,.08,.05" style="fill:#757575;"/><path d="M11.37,10.51l-.69,2.55c-.04,.15-.11,.29-.19,.42-.09,.13-.19,.24-.31,.33s-.25,.16-.4,.21c-.15,.05-.3,.08-.46,.08h-3.77l.96-3.6c.02-.06,.05-.12,.1-.16,.05-.04,.11-.06,.18-.06h.51c.06,0,.11,.02,.15,.07,.04,.05,.05,.1,.03,.16l-.71,2.65h.97l.72-2.67c.02-.06,.05-.12,.1-.16,.05-.04,.11-.06,.17-.06h.52c.06,0,.11,.02,.14,.07,.03,.05,.04,.1,.03,.16l-.71,2.65h.58c.11,0,.22-.03,.31-.1,.09-.07,.15-.16,.18-.27l.62-2.3c.02-.06,.05-.12,.1-.16,.05-.04,.11-.06,.18-.06h.51c.06,0,.11,.02,.15,.07,.04,.05,.05,.1,.03,.16" style="fill:#757575;"/><path d="M12.03,12.66l-.33,1.23c-.02,.06-.05,.12-.1,.16-.05,.04-.11,.06-.18,.06h-.51c-.06,0-.1-.02-.14-.07-.04-.05-.05-.1-.03-.15l.9-3.38c.02-.06,.05-.12,.1-.16,.05-.04,.11-.06,.18-.06h.74l-.38,1.44h1.19l.33-1.23c.02-.06,.05-.12,.1-.16,.05-.04,.11-.06,.17-.06h.75l-.97,3.6c-.02,.06-.05,.12-.1,.16-.05,.04-.11,.06-.17,.06h-.52c-.06,0-.11-.02-.14-.07-.04-.05-.04-.1-.03-.15l.32-1.22h-1.19Z" style="fill:#757575;"/><path d="M14.15,13.87l.96-3.59h3.02c.23,0,.44,.05,.64,.15,.19,.1,.35,.23,.48,.4,.13,.17,.21,.35,.26,.57,.05,.21,.04,.43-.02,.65l-.49,1.83c-.02,.06-.05,.12-.1,.16-.05,.04-.11,.06-.18,.06h-.51c-.06,0-.11-.02-.15-.07-.04-.05-.05-.1-.03-.16l.52-1.93c.02-.09,.02-.18,0-.26-.02-.09-.05-.17-.11-.23-.05-.07-.12-.12-.2-.16-.08-.04-.16-.06-.26-.06h-.22l-.72,2.67c-.02,.06-.05,.12-.1,.16-.05,.04-.11,.06-.17,.06h-.52c-.06,0-.11-.02-.14-.07-.04-.05-.04-.1-.03-.16l.71-2.65h-.97l-.72,2.67c-.02,.06-.05,.12-.1,.16-.05,.04-.11,.06-.18,.06h-.51c-.06,0-.11-.02-.15-.07-.04-.05-.05-.1-.03-.16" style="fill:#757575;"/><path d="M19.62,10.59h.05s.04,0,.06-.02c.01-.01,.02-.03,.02-.05,0-.02,0-.04-.02-.05s-.03-.01-.06-.01h-.05v.12Zm.19-.07s0,.04-.02,.06-.03,.03-.05,.04l.1,.17h-.07l-.09-.15h-.06v.15h-.06v-.39h.11s.08,0,.11,.03c.02,.02,.03,.05,.03,.09m-.41,.08c0,.05,.01,.1,.04,.14,.03,.04,.06,.08,.1,.1s.09,.04,.14,.04,.1-.01,.14-.04c.04-.03,.08-.06,.1-.1s.04-.09,.04-.14-.01-.1-.04-.14c-.03-.04-.06-.08-.1-.1s-.09-.04-.14-.04-.1,.01-.14,.04c-.04,.03-.08,.06-.1,.1-.03,.04-.04,.09-.04,.14m-.05,0c0-.06,.01-.11,.04-.16,.03-.05,.07-.09,.12-.12,.05-.03,.11-.04,.16-.04s.11,.01,.16,.04c.05,.03,.09,.07,.12,.12,.03,.05,.04,.11,.04,.16s-.01,.11-.04,.16c-.03,.05-.07,.09-.12,.12-.05,.03-.11,.05-.17,.05s-.12-.02-.17-.05c-.05-.03-.09-.07-.12-.12-.03-.05-.04-.1-.04-.16" style="fill:#757575;"/><path d="M17.63,6.26h.05s.04,0,.06-.02c.01-.01,.02-.03,.02-.05,0-.02,0-.04-.02-.05s-.03-.01-.06-.01h-.05v.12Zm.19-.07s0,.04-.02,.06-.03,.03-.05,.04l.1,.17h-.07l-.09-.15h-.06v.15h-.06v-.39h.11s.08,0,.11,.03c.02,.02,.03,.05,.03,.09m-.41,.08c0,.05,.01,.1,.04,.14,.03,.04,.06,.08,.1,.1s.09,.04,.14,.04,.1-.01,.14-.04c.04-.03,.08-.06,.1-.1s.04-.09,.04-.14-.01-.1-.04-.14c-.03-.04-.06-.08-.1-.1s-.09-.04-.14-.04-.1,.01-.14,.04c-.04,.03-.08,.06-.1,.1-.03,.04-.04,.09-.04,.14m-.05,0c0-.06,.01-.11,.04-.16,.03-.05,.07-.09,.12-.12,.05-.03,.11-.04,.16-.04s.11,.01,.16,.04c.05,.03,.09,.07,.12,.12,.03,.05,.04,.11,.04,.16s-.01,.11-.04,.16c-.03,.05-.07,.09-.12,.12-.05,.03-.11,.05-.17,.05s-.12-.02-.17-.05c-.05-.03-.09-.07-.12-.12-.03-.05-.04-.1-.04-.16" style="fill:#757575;"/></svg>