<?xml version="1.0" encoding="UTF-8"?><svg id="a" xmlns="http://www.w3.org/2000/svg" viewBox="0 0 20 20"><path d="M17.02,8.41c-.29-.06-.58,.11-.85,.5-.22,.31-.36,.63-.43,.97-.04,.19-.06,.39-.06,.59,0,.24,.05,.49,.15,.74,.12,.32,.28,.49,.48,.53,.2,.04,.42-.05,.66-.26,.3-.27,.5-.67,.62-1.2,.04-.19,.06-.39,.06-.6,0-.24-.05-.49-.15-.74-.12-.32-.28-.49-.48-.53Z" style="fill:#757575;"/><path d="M18.14,5.05H1.86C.83,5.05,0,5.89,0,6.91v6.21C0,14.16,.83,14.99,1.86,14.99h7.71l3.52,1.96-.8-1.96h5.84c1.03,0,1.86-.83,1.86-1.86V6.91c0-1.03-.83-1.86-1.86-1.86ZM8.29,13.2c.02,.2-.02,.38-.1,.54-.1,.18-.24,.28-.43,.29-.21,.02-.43-.08-.64-.3-.76-.77-1.36-1.93-1.8-3.46-.53,1.04-.92,1.82-1.17,2.34-.48,.92-.89,1.39-1.23,1.41-.22,.02-.41-.17-.57-.56-.41-1.07-.86-3.12-1.34-6.17-.03-.21,.02-.4,.13-.54h0c.11-.15,.28-.24,.51-.25,.41-.03,.65,.16,.71,.59,.25,1.7,.53,3.14,.82,4.32l1.78-3.39c.16-.31,.37-.47,.61-.49,.36-.02,.58,.2,.67,.68,.2,1.08,.46,2,.77,2.78,.21-2.07,.57-3.55,1.07-4.47,.12-.23,.3-.34,.54-.36,.19-.02,.36,.04,.51,.16s.24,.28,.25,.46c0,.15-.02,.27-.08,.39-.32,.59-.58,1.57-.79,2.93-.2,1.33-.28,2.36-.23,3.1Zm4.99-1.28c-.49,.81-1.12,1.22-1.91,1.22-.14,0-.28-.02-.44-.05-.58-.12-1.01-.43-1.3-.94-.26-.45-.39-.98-.39-1.61,0-.84,.21-1.6,.63-2.29,.5-.81,1.13-1.22,1.91-1.22,.14,0,.28,.02,.44,.05,.57,.12,1.01,.43,1.3,.94,.26,.44,.39,.97,.39,1.6,0,.84-.21,1.6-.63,2.3Zm5.09,0c-.49,.81-1.12,1.22-1.91,1.22-.14,0-.28-.02-.44-.05-.58-.12-1.01-.43-1.3-.94-.26-.45-.39-.98-.39-1.61,0-.84,.21-1.6,.63-2.29,.5-.81,1.13-1.22,1.91-1.22,.14,0,.28,.02,.44,.05,.58,.12,1.01,.43,1.3,.94,.26,.44,.4,.97,.39,1.6,0,.84-.21,1.6-.63,2.3Z" style="fill:#757575;"/><path d="M11.92,8.41c-.29-.06-.58,.11-.85,.5-.22,.31-.36,.63-.43,.97-.04,.19-.06,.39-.06,.59,0,.24,.05,.49,.15,.74,.12,.32,.28,.49,.48,.53,.2,.04,.42-.05,.66-.26,.3-.27,.5-.67,.62-1.2,.04-.19,.07-.39,.06-.6,0-.24-.05-.49-.15-.74-.12-.32-.28-.49-.48-.53Z" style="fill:#757575;"/></svg>