<?xml version="1.0" encoding="UTF-8"?><svg id="a" xmlns="http://www.w3.org/2000/svg" viewBox="0 0 20 20"><path d="M16.66,5.79c.03-.12,.06-.23,.08-.35-.02,.12-.05,.23-.08,.35h0Z" style="fill:none;"/><polygon points="6 17.1 5.9 17.78 6 17.1 6 17.1" style="fill:none;"/><path d="M16.08,4.78s.03,0,.05,.01c0,0,.01,0,.02,0t0,0s-.01,0-.02,0c-.02,0-.03,0-.05-.01Z" style="fill:#757575;"/><polygon points="6.86 11.67 6 17.1 6 17.1 6.83 11.86 6.86 11.67" style="fill:#757575;"/><path d="M17.69,5.76c-.24-.27-.54-.5-.89-.68-.02,.12-.04,.24-.06,.36-.02,.12-.05,.23-.08,.35-.91,3.94-3.65,5.32-7.13,5.32h-1.82c-.44,0-.81,.32-.88,.75l-.83,5.25-.11,.68-.26,1.68c-.04,.28,.17,.54,.46,.54h3.23c.38,0,.71-.28,.77-.66l.03-.16,.61-3.87,.04-.21c.06-.38,.39-.66,.77-.66h.48c3.13,0,5.59-1.27,6.3-4.95,.3-1.54,.14-2.82-.65-3.73Z" style="fill:#757575;"/><path d="M15.96,1.51c-.93-1.06-2.6-1.51-4.74-1.51H5c-.44,0-.81,.32-.88,.75L1.53,17.16c-.05,.32,.2,.62,.53,.62h3.84l.11-.68,.86-5.44,1.04-6.57c.04-.26,.21-.47,.43-.58,.1-.05,.22-.08,.34-.08h4.87c.58,0,1.12,.04,1.61,.12,.14,.02,.28,.05,.41,.08,.13,.03,.26,.06,.39,.1,.05,.01,.09,.03,.14,.04,.02,0,.03,0,.05,.01,0,0,.01,0,.02,0,.23,.08,.45,.17,.66,.28,.24-1.56,0-2.61-.84-3.57Z" style="fill:#757575;"/><path d="M8.33,4.52c.1-.05,.22-.08,.34-.08h4.87c.58,0,1.12,.04,1.61,.12,.14,.02,.28,.05,.41,.08,.13,.03,.26,.06,.39,.1,.05,.01,.09,.03,.14,.04-.05-.01-.09-.03-.14-.04-.13-.04-.25-.07-.39-.1-.13-.03-.27-.05-.41-.08-.49-.08-1.03-.12-1.61-.12h-4.87c-.12,0-.23,.03-.34,.08-.22,.11-.39,.32-.43,.58,.04-.26,.21-.47,.43-.58Z" style="fill:#757575;"/></svg>