<?xml version="1.0" encoding="UTF-8"?><svg id="a" xmlns="http://www.w3.org/2000/svg" viewBox="0 0 20 20"><path d="M1.19,16.16C.54,16.16,0,15.63,0,14.98v-3.33c0-.65,.53-1.18,1.18-1.18,.65,0,1.18,.53,1.18,1.18v3.33c0,.65-.53,1.18-1.18,1.18h0Zm3.79,1.28c-.65,0-1.18-.53-1.18-1.18v-5.88c0-.65,.53-1.18,1.18-1.18s1.18,.53,1.18,1.18v5.88c0,.65-.53,1.18-1.18,1.18Zm3.79,1.25c-.65,0-1.18-.53-1.18-1.18V9.12c0-.65,.53-1.18,1.18-1.18s1.18,.53,1.18,1.18v8.38c0,.65-.53,1.18-1.18,1.18h0ZM18.72,5L2.27,.07C1.46-.19,.73,.32,.73,1.1V9.33c.15-.03,.3-.05,.46-.05,.15,0,.31,.02,.46,.05V1.11c0-.06,0-.18,.2-.18,.05,0,.11,0,.16,.03L18.46,5.88c.36,.11,.62,.47,.62,.73v10.55c0,.06,0,.18-.2,.18-.05,0-.11,0-.16-.03l-3.8-1.14v.95l3.53,1.06c.14,.04,.28,.06,.42,.06,.59,.03,1.09-.43,1.11-1.02,0-.03,0-.06,0-.08V6.6c0-.68-.56-1.39-1.28-1.6h0Zm-6.15,15c-.65,0-1.18-.53-1.18-1.18V7.82c0-.65,.53-1.18,1.18-1.18s1.18,.53,1.18,1.18v11c0,.65-.53,1.18-1.18,1.18h0Z" style="fill:#757575;"/></svg>