<?xml version="1.0" encoding="UTF-8"?><svg id="a" xmlns="http://www.w3.org/2000/svg" viewBox="0 0 20 20"><path d="M17.93,0H2.07C.93,0,0,.93,0,2.07v15.85C0,19.07,.93,20,2.07,20h15.85c1.14,0,2.07-.93,2.07-2.07V2.07c0-1.14-.93-2.07-2.07-2.07Zm-7.27,14.64h-1.38c-.06,0-.1-.02-.12-.06l-.69-2.61h-2.67l-.67,2.56c0,.06-.04,.11-.13,.11h-1.23c-.06,0-.1-.04-.06-.13L6.09,6.03c.04-.21,.08-.45,.06-.68,0-.06,.04-.06,.06-.06h1.73q.06,0,.1,.06l2.67,9.19c0,.06,0,.11-.06,.11Zm5.58-3.35s-.04,.09-.08,.09c-.46,.06-.94,.09-1.4,.06l-2.17,.02c0,1.15,.56,1.94,1.79,1.94,.46,.02,.94-.09,1.35-.28,.06-.04,.1,0,.1,.06v1.07c0,.06-.02,.13-.06,.17-.44,.23-1,.3-1.67,.3-2.21,0-3.04-1.67-3.04-3.53,0-2.01,1.04-3.65,2.79-3.65s2.44,1.58,2.44,2.84c0,.3-.02,.6-.06,.9Z" style="fill:#757575;"/><path d="M6.18,10.6h1.96c-.23-.96-.79-3.01-1-4.04-.17,.98-.63,2.69-.96,4.04Z" style="fill:#757575;"/><path d="M13.84,8.8c-.79,0-1.12,.73-1.23,1.47h2.31v-.13c0-.49-.23-1.35-1.08-1.35Z" style="fill:#757575;"/></svg>