<?xml version="1.0" encoding="UTF-8"?><svg id="a" xmlns="http://www.w3.org/2000/svg" viewBox="0 0 20 20"><path d="M17.93,0H2.07C.93,0,0,.93,0,2.07v15.85C0,19.07,.93,20,2.07,20h15.85c1.14,0,2.07-.93,2.07-2.07V2.07c0-1.14-.93-2.07-2.07-2.07Zm-7.42,14.94h-1.61c-.11,0-.19,0-.24-.1-.15-.37-.3-.74-.45-1.11-.15-.36-.31-.74-.48-1.12-.17-.38-.34-.76-.51-1.15h-.01c-.15,.38-.31,.76-.47,1.14s-.32,.76-.48,1.14c-.16,.37-.32,.75-.48,1.12-.03,.09-.08,.1-.16,.1h-1.54s-.05,.02-.05-.03c0-.03,0-.07,.01-.1l2.18-4.52-2.13-4.55s-.03-.07-.01-.09c.01-.03,.04-.04,.07-.04h1.59s.07,0,.1,.02c.03,.02,.05,.05,.07,.08,.13,.38,.29,.76,.45,1.14,.17,.38,.33,.75,.51,1.13,.17,.37,.32,.74,.47,1.13h.01c.15-.39,.3-.77,.46-1.14,.15-.37,.32-.74,.48-1.12,.16-.37,.32-.75,.47-1.12,0-.04,.02-.07,.04-.09,.03-.02,.06-.03,.09-.02h1.48s.07,.02,.08,.06c0,0,0,.05-.02,.06l-2.11,4.39,2.25,4.65s.02,.07,.01,.11c0,.03-.04,0-.08,.02Zm5.39-.36c-.36,.2-.75,.34-1.14,.43-.36,.08-.72,.12-1.08,.12-.52,0-1.04-.12-1.51-.4-.44-.26-.81-.68-1.06-1.21-.26-.54-.39-1.21-.39-2.02,0-.66,.13-1.3,.39-1.87,.27-.58,.65-1.06,1.12-1.37,.49-.35,1.08-.51,1.78-.51,.03,0,.08,0,.15,0,.06,0,.13,0,.22,.02v-2.8c0-.06,.02-.1,.07-.1h1.43s.06,.03,.07,.06V13.39c0,.16,0,.34,.01,.53,.01,.19,.02,.36,.03,.51,0,.06-.02,.11-.07,.14Z" style="fill:#757575;"/><path d="M13.94,9.39c-.27,0-.55,.07-.79,.23-.24,.15-.44,.37-.6,.66-.15,.28-.23,.66-.23,1.13,0,.31,.04,.62,.12,.91,.07,.24,.18,.45,.32,.63,.13,.16,.29,.28,.48,.35,.19,.08,.39,.12,.58,.12,.1,0,.2,0,.29-.02,.09,0,.17,0,.25-.04v-3.9c-.06-.02-.13-.04-.19-.04-.08,0-.15-.02-.23-.02Z" style="fill:#757575;"/></svg>