<?xml version="1.0" encoding="UTF-8"?><svg id="a" xmlns="http://www.w3.org/2000/svg" xmlns:xlink="http://www.w3.org/1999/xlink" viewBox="0 0 20 20"><defs><clipPath id="b"><rect width="20" height="20" style="fill:none;"/></clipPath></defs><g style="clip-path:url(#b);"><path d="M18.23,0H1.77C.79,0,0,.79,0,1.77V13.07l1.95-1.81c-.11-.25-.16-.53-.16-.82,0-1.17,.95-2.12,2.12-2.12s2.13,.95,2.13,2.12c0,.1,0,.2-.02,.29l2.61,1.5c.37-.31,.85-.5,1.37-.5,.17,0,.34,.02,.5,.06l3.91-5.97c-.25-.35-.4-.77-.4-1.24,0-1.17,.95-2.12,2.13-2.12s2.12,.95,2.12,2.12c0,.17-.02,.33-.06,.49l1.81,1.22V1.77C20,.79,19.21,0,18.23,0" style="fill:#757575;"/><path d="M16.13,6.71c-.2,0-.39-.03-.57-.08l-3.88,5.93c.28,.36,.44,.81,.44,1.3,0,1.17-.95,2.12-2.12,2.12s-2.13-.95-2.13-2.12c0-.14,.01-.27,.04-.4l-2.55-1.47c-.38,.36-.89,.58-1.45,.58-.37,0-.71-.09-1.01-.26L0,14.99v3.24c0,.97,.79,1.76,1.77,1.76H18.23c.97,0,1.77-.79,1.77-1.76V7.99l-2.57-1.73c-.36,.28-.81,.45-1.3,.45" style="fill:#757575;"/></g></svg>