<?xml version="1.0" encoding="UTF-8"?><svg id="a" xmlns="http://www.w3.org/2000/svg" viewBox="0 0 20 20"><polygon points="10.7 1.94 10.69 1.94 10.71 1.94 10.7 1.94" style="fill:#757575;"/><polygon points="12 18.06 12 18.06 11.99 18.06 12 18.06" style="fill:#757575;"/><polygon points="5.84 12.04 6.69 11.73 9.35 10.75 5.84 12.04" style="fill:none;"/><path d="M7.13,3.68c-.06,0-.11,.01-.14,.04-.2,.14-.21,.84,.41,2.33,.03,.06,.06,.13,.09,.2,.6-.34,1.25-.65,1.93-.91,0-.01,0-.02,0-.03-1.45-1.46-2.09-1.62-2.29-1.62Z" style="fill:none;"/><polygon points="3.08 13.05 3.08 13.05 3.08 13.05 3.08 13.05 3.08 13.05" style="fill:none;"/><path d="M10.79,15.4c.02,.06,.03,.14,.05,.2,.2,.65,.41,1.18,.62,1.54,.19,.33,.38,.52,.53,.52,0,0,0,0,.01,0,.23-.02,.67-.64,.86-2.79,0,0-.01-.01-.02-.02-.69,.24-1.38,.42-2.06,.56Z" style="fill:none;"/><path d="M3.42,13.7s.06,.09,.09,.13c-.03-.04-.06-.08-.09-.13Z" style="fill:none;"/><path d="M3.18,10.68c.02-.05,.04-.1,.06-.15-.02,.05-.04,.1-.06,.15Z" style="fill:none;"/><path d="M2.93,12.35c0-.05-.01-.11-.01-.16,0,.06,0,.11,.01,.16Z" style="fill:none;"/><path d="M13.68,15.12c1.18,1.11,1.71,1.23,1.88,1.23,.06,0,.11-.01,.14-.04,.21-.15,.21-.9-.48-2.5-.61,.33-1.25,.63-1.94,.89v.02c.13,.13,.27,.28,.4,.41Z" style="fill:none;"/><path d="M2.96,11.46s.01-.06,.02-.09c0,.03-.02,.06-.02,.09Z" style="fill:none;"/><path d="M3.61,9.78c.72-1.2,1.95-2.37,3.54-3.33-.03-.08-.08-.17-.11-.24-.64-1.54-.74-2.49-.27-2.82,.11-.07,.23-.11,.36-.11,.36,0,1.07,.27,2.34,1.51,0-.09,.01-.18,.02-.27,.2-1.66,.59-2.53,1.16-2.58,.01,0,.03,0,.04,0H0V11.07l3.63-1.34s-.01,.03-.02,.04Z" style="fill:none;"/><path d="M2.04,13.44l1.04-.38s0,0,0,0h0s0,0,0,0h0s0,0,0,0c-.08-.23-.12-.46-.15-.7,0-.05-.01-.11-.01-.16-.01-.24,0-.48,.04-.73,0-.03,.01-.06,.02-.09,.04-.23,.11-.46,.2-.69,.02-.05,.04-.1,.06-.15,.1-.25,.23-.5,.38-.75,0-.01,.01-.03,.02-.04L0,11.07H0s2.04,2.37,2.04,2.37h0Z" style="fill:#757575;"/><polygon points="3.08 13.05 3.08 13.05 2.04 13.44 2.04 13.44 2.04 13.44 3.08 13.05" style="fill:#757575;"/><polygon points="10.54 10.31 9.93 10.53 9.93 10.53 10.54 10.31" style="fill:#757575;"/><path d="M8.2,7.69c.37-.18,.75-.35,1.15-.52,0-.66,.03-1.27,.07-1.84-.68,.27-1.33,.58-1.93,.91,.2,.45,.44,.94,.71,1.44Z" style="fill:#757575;"/><path d="M10.31,6.8c2.28-.84,4.47-1.27,6.18-1.27s3,.45,3.33,1.36h0c-.94-2.61-5.4-3.37-9.99-1.71-.05,.57-.08,1.18-.09,1.84,.19-.07,.37-.15,.56-.22Z" style="fill:#757575;"/><polygon points="9.54 10.68 9.54 10.68 3.08 13.05 3.08 13.05 5.84 12.04 9.35 10.75 9.54 10.68" style="fill:#757575;"/><path d="M7.84,7.87c-.26-.49-.5-.97-.69-1.42-1.59,.96-2.82,2.13-3.54,3.33-.15,.25-.27,.5-.38,.75-.02,.05-.04,.1-.06,.15-.09,.23-.15,.46-.2,.69,0,.03-.02,.06-.02,.09-.04,.25-.05,.49-.04,.73,0,.06,0,.11,.01,.16,.01,.12,.05,.23,.07,.35-.11-1.43,1.85-3.31,4.84-4.83Z" style="fill:#757575;"/><path d="M3.23,10.53c.1-.25,.23-.5,.38-.75-.15,.25-.27,.5-.38,.75Z" style="fill:#757575;"/><path d="M2.92,12.18c-.01-.24,0-.48,.04-.73-.04,.25-.05,.49-.04,.73Z" style="fill:#757575;"/><path d="M3.01,12.69c-.03-.11-.06-.23-.07-.35,.02,.24,.07,.47,.15,.7-.04-.11-.06-.23-.07-.35Z" style="fill:#757575;"/><path d="M2.98,11.37c.04-.23,.11-.46,.2-.69-.09,.23-.15,.46-.2,.69Z" style="fill:#757575;"/><polygon points="3.08 13.05 3.08 13.05 6.69 11.73 5.84 12.04 3.08 13.05 3.08 13.05 3.08 13.05 3.08 13.05 3.08 13.05" style="fill:#757575;"/><path d="M11.61,13.47c-.41,.13-.81,.25-1.2,.35,.12,.57,.24,1.1,.38,1.58,.67-.13,1.36-.32,2.06-.56-.4-.41-.81-.87-1.23-1.37Z" style="fill:#757575;"/><path d="M3.08,13.05h0c.08,.23,.2,.44,.34,.64-.07-.1-.11-.21-.17-.32-.07-.1-.13-.21-.17-.33h0Z" style="fill:#757575;"/><polygon points="3.08 13.05 3.08 13.05 3.08 13.05 3.08 13.05 3.08 13.05" style="fill:#757575;"/><polygon points="3.08 13.05 3.08 13.05 3.08 13.05 3.08 13.05 3.08 13.05" style="fill:#757575;"/><polygon points="3.08 13.05 3.08 13.05 3.08 13.05 3.08 13.05 3.08 13.05 3.08 13.05 3.08 13.05 3.08 13.05" style="fill:#757575;"/><polygon points="3.08 13.05 5.84 12.04 3.08 13.05 3.08 13.05" style="fill:#757575;"/><polygon points="9.93 10.53 9.93 10.53 19.82 6.89 19.83 6.9 19.82 6.89 10.95 10.16 9.93 10.53" style="fill:#757575;"/><polygon points="9.54 10.68 9.35 10.75 6.69 11.73 9.54 10.68 9.54 10.68" style="fill:#757575;"/><polygon points="9.93 10.53 10.95 10.16 10.54 10.31 9.93 10.53 9.93 10.53" style="fill:#757575;"/><polygon points="9.35 10.75 9.54 10.68 9.54 10.68 9.35 10.75" style="fill:#757575;"/><path d="M10.41,13.82c.4-.1,.8-.22,1.2-.35-.53-.64-1.07-1.35-1.6-2.1,.11,.87,.24,1.69,.39,2.45Z" style="fill:#757575;"/><path d="M10.4,15.47c-.14-.47-.26-1-.37-1.55-.2-.99-.37-2.08-.48-3.24,0,0,0,0,0,0l-2.86,1.05-3.6,1.33c.04,.12,.11,.22,.17,.33,.05,.11,.1,.22,.17,.32-.14-.2-.25-.41-.34-.64l-1.05,.39h0s-.06,3.13-.06,3.13l3.62-1.33s-.02-.01-.03-.02c1.31,.45,3,.55,4.83,.24Z" style="fill:#757575;"/><path d="M3.08,13.05s0,0,0,0c.04,.12,.1,.22,.17,.33-.06-.11-.13-.21-.17-.33h0Z" style="fill:#757575;"/><polygon points="3.08 13.05 3.08 13.05 3.08 13.05 3.08 13.05" style="fill:#757575;"/><polygon points="3.08 13.05 3.08 13.05 3.08 13.05 3.08 13.05" style="fill:#757575;"/><polygon points="19.82 6.89 19.82 6.89 19.82 6.89 19.82 6.89 19.82 6.89" style="fill:#757575;"/><polygon points="3.08 13.04 3.08 13.05 3.08 13.05 3.08 13.05 3.08 13.04" style="fill:#757575;"/><path d="M3.01,12.69c0,.12,.03,.24,.07,.35,0,0,0,0,0,0-.04-.11-.05-.24-.07-.35Z" style="fill:#757575;"/><polygon points="10.95 10.16 19.82 6.89 19.82 6.89 10.95 10.16" style="fill:#757575;"/><polygon points="19.82 6.89 19.82 6.89 10.54 10.31 10.95 10.16 19.82 6.89" style="fill:#757575;"/><path d="M12.85,14.84s.01,.01,.02,.02c0,0,0-.02,0-.03,0,0-.02,0-.02,0Z" style="fill:#757575;"/><g><path d="M19.83,6.9s0,0,0-.01l-9.9,3.64s0,0,0,0c.07,.11,.14,.22,.22,.33,.62,.89,1.26,1.73,1.88,2.47,.42,.51,.84,.95,1.24,1.36h.02s0,0,0,0c.69-.26,1.34-.56,1.94-.89,0,0,0,0,0,0l-.03-.07,.07-.04c.07-.04,.14-.08,.2-.11l.08-.05,.04,.08c3.19-1.85,5.01-4.56,4.25-6.7Z" style="fill:#757575;"/><path d="M15.71,16.3s-.08,.04-.14,.04c-.17,0-.71-.12-1.88-1.23-.13-.12-.27-.27-.4-.41v.06c-.02,.15-.03,.3-.05,.46,.06,.06,.12,.13,.18,.18,.94,.88,1.67,1.33,2.16,1.33,.13,0,.26-.03,.37-.11,.61-.43,.14-1.88-.35-3.02h0c-.12,.06-.24,.12-.36,.19,.7,1.61,.7,2.35,.48,2.5Z" style="fill:#757575;"/></g><path d="M7.4,6.05c-.62-1.49-.61-2.19-.41-2.33,.03-.02,.08-.04,.14-.04,.21,0,.85,.16,2.29,1.62,.01-.17,.03-.35,.04-.51-1.28-1.24-1.98-1.51-2.34-1.51-.13,0-.26,.03-.36,.11-.46,.33-.37,1.28,.27,2.82,.03,.08,.08,.16,.11,.24,.11-.07,.23-.14,.34-.2-.03-.06-.07-.14-.09-.2Z" style="fill:#757575;"/><polygon points="9.54 10.68 9.54 10.68 9.54 10.68 9.54 10.68 9.54 10.68" style="fill:#757575;"/><path d="M15.46,13.57c-.06,.04-.13,.07-.2,.11l-.07,.04,.03,.07s0,0,0,0c.12-.06,.24-.13,.36-.19l-.04-.08-.08,.05Z" style="fill:#757575;"/><polygon points="9.54 10.68 9.54 10.68 9.54 10.68 9.54 10.68 9.54 10.68" style="fill:#757575;"/><rect x="9.54" y="10.68" width="0" transform="translate(-3.11 3.98) rotate(-20.32)" style="fill:#757575;"/><polygon points="9.54 10.68 9.54 10.68 9.54 10.68 9.54 10.68" style="fill:#757575;"/><path d="M9.54,10.68c-.02-.17-.04-.34-.05-.51,0-.11-.01-.21-.02-.32-.48-.74-.9-1.46-1.27-2.15-.12,.06-.24,.11-.36,.17,.48,.89,1.05,1.84,1.7,2.81h0Z" style="fill:#757575;"/><path d="M13.28,14.71v-.02s0,0-.01,0h.01Z" style="fill:#757575;"/><path d="M9.43,5.34s.02,0,.02,0c0,0-.01-.01-.02-.02,0,.01,0,.02,0,.03Z" style="fill:#757575;"/><path d="M13.23,15.23c-.12-.12-.24-.24-.36-.37-.19,2.15-.62,2.77-.86,2.79,0,0,0,0-.01,0-.15,0-.34-.18-.53-.52-.21-.36-.43-.89-.62-1.54-.02-.06-.03-.14-.05-.2-.13,.03-.26,.05-.39,.07,.02,.08,.04,.17,.07,.25,.47,1.55,.99,2.34,1.53,2.34h0s.03,0,.04,0c.72-.06,1.04-1.48,1.18-2.83Z" style="fill:#757575;"/><path d="M9.5,4.53c-.01,.08-.01,.18-.02,.27,.04,.04,.08,.07,.12,.12l.03,.03v.04c-.01,.1-.02,.19-.03,.29,.05-.02,.09-.04,.14-.06,.03-.01,.07-.02,.1-.03,.02-.2,.03-.41,.05-.6,.2-1.61,.55-2.21,.8-2.23,0,0,.01,0,.02,0,.16,0,.35,.2,.56,.56,.22,.39,.44,.96,.65,1.67l.4-.08c-.61-2.1-1.2-2.55-1.6-2.55h-.01s-.03,0-.04,0c-.56,.05-.95,.92-1.16,2.58Z" style="fill:#757575;"/><rect x="9.92" y="10.53" width="0" height="0" transform="translate(-3.12 4.27) rotate(-21.04)" style="fill:#757575;"/><path d="M13.28,14.69h0s-.02,0-.02,0h0s0,0,.01,0Z" style="fill:#757575;"/><polygon points="9.92 10.53 9.93 10.53 9.93 10.53 9.92 10.53 9.92 10.53" style="fill:#757575;"/><rect x="9.93" y="10.53" width="0" height="0" style="fill:#757575;"/><polygon points="9.93 10.54 9.93 10.53 9.92 10.53 9.93 10.54" style="fill:#757575;"/><path d="M9.92,10.53h0c-.01-.14-.03-.27-.04-.4-.09-1.09-.14-2.14-.13-3.11-.13,.05-.27,.11-.4,.16,0,.84,.04,1.74,.11,2.67,.15,.23,.3,.46,.46,.69Z" style="fill:#757575;"/><path d="M9.45,5.33s.1-.04,.15-.06c0-.09,.02-.19,.02-.29v-.04s-.03-.03-.03-.03c-.04-.04-.08-.08-.12-.12-.02,.16-.03,.34-.04,.51,0,0,.01,.01,.02,.02Z" style="fill:#757575;"/><path d="M13.28,14.71h-.01s-.06,.01-.1,.03c-.1,.04-.2,.07-.3,.1,0,.01,0,.02,0,.03,.12,.13,.24,.25,.36,.37,.02-.15,.03-.31,.04-.46v-.06Z" style="fill:#757575;"/><rect x="9.53" y="10.6" width=".41" height="0" transform="translate(-3.06 4.02) rotate(-20.22)" style="fill:#757575;"/><path d="M12.87,14.84c.1-.03,.2-.06,.3-.1,.03-.01,.06-.03,.1-.04h0s-.39,.13-.39,.13c0,0,0,0,0,0Z" style="fill:#757575;"/><polygon points="9.54 10.68 9.92 10.53 9.92 10.53 9.54 10.68 9.54 10.68" style="fill:#757575;"/><rect x="9.53" y="10.6" width=".41" transform="translate(-3.06 4.02) rotate(-20.22)" style="fill:#757575;"/><path d="M9.54,10.68l.38-.14c-.16-.23-.31-.46-.46-.69,0,.11,.01,.21,.02,.32,.01,.17,.04,.34,.05,.51Z" style="fill:#757575;"/></svg>