<?xml version="1.0" encoding="UTF-8"?><svg id="a" xmlns="http://www.w3.org/2000/svg" viewBox="0 0 20 20"><path d="M6.58,20c1.89,0,3.42-1.49,3.42-3.33v-3.33h-3.42c-1.89,0-3.42,1.49-3.42,3.33s1.53,3.33,3.42,3.33" style="fill:#757575;"/><path d="M3.16,10c0-1.84,1.53-3.33,3.42-3.33h3.42v6.67h-3.42c-1.89,0-3.42-1.49-3.42-3.33" style="fill:#757575;"/><path d="M14.74,6.41c1.23-.5,2.1-1.69,2.1-3.07C16.84,1.49,15.31,0,13.42,0h-3.42s-3.42,0-3.42,0C4.69,0,3.16,1.49,3.16,3.33s1.53,3.33,3.42,3.33h3.42s1.52,0,1.52,0c-1.2,.66-2.02,1.9-2.02,3.33,0,2.11,1.76,3.83,3.92,3.83s3.92-1.72,3.92-3.83c0-1.66-1.09-3.06-2.6-3.59ZM11,1h2.42c1.33,0,2.42,1.05,2.42,2.33s-1.09,2.33-2.42,2.33h-2.42V1Zm2.42,11.83c-1.61,0-2.92-1.27-2.92-2.83s1.31-2.83,2.92-2.83,2.92,1.27,2.92,2.83-1.31,2.83-2.92,2.83Z" style="fill:#757575;"/></svg>