<?xml version="1.0" encoding="UTF-8"?><svg id="a" xmlns="http://www.w3.org/2000/svg" xmlns:xlink="http://www.w3.org/1999/xlink" viewBox="0 0 870 870"><defs><clipPath id="b"><path d="M310.31,302.94c1.06,3.53,7.22,20.07,29.89,20.6,26.34,.61,36.69-18.78,36.69-18.78-.17-1.6-4.66-15.57-33.29-15.57-24.11,0-31.15,11.24-33.29,13.75Z" style="fill:#fff;"/></clipPath><clipPath id="c"><path d="M476.89,302.94c1.06,3.53,7.22,20.07,29.89,20.6,26.34,.61,36.69-18.78,36.69-18.78-.17-1.6-4.66-15.57-33.29-15.57-24.11,0-31.15,11.24-33.29,13.75Z" style="fill:#fff;"/></clipPath></defs><path d="M173.14,669.39l-.07-.39,45.18-15.47,11.72-4.01c-23-37.5-28.65-86.56,4.88-117.11,56.39-51.38,180.51-52.49,180.51-52.49,53.28,.64,90.11,17.21,114.8,40.15h.02s0,.01,0,.02c32.66,30.37,44.05,71.9,44.03,102.55l30.17,4.03,73.81,9.86,.42,3.83c2.11,.87,4.2,1.81,6.25,2.8,35.39,17.11,60.25,50.07,68.53,88.23,72.35-77.68,116.6-181.87,116.6-296.39C870,194.76,675.24,0,435,0S0,194.76,0,435c0,127.5,54.85,242.18,142.24,321.74,2.2-6.45,4.32-12.62,6.34-18.45,13.61-39.43,23.42-65.82,24.57-68.9Z" style="fill:#00c0ff;"/><path d="M530.65,677.91c3.21-.37,10.62-1.78,18.3-7.16-5.26,2.48-11.42,4.88-18.3,7.16Z" style="fill:#00c0ff;"/><path d="M530.17,618.79c0-.46-.01-1.15-.02-2.02-.06-7.9-.1-30.85-.16-31.6-.14-1.7-.17-8.38-.15-16.86-18.83,11.2-44.62,25.95-73.32,38.62-14.18,6.26-29.06,12.01-44.17,16.57-21.91,6.61-44.86,8.36-67.39,5.63l6.56,4.19c49.59,31.7,113.35,30.57,161.78-2.86l16.9-11.66h-.02Z" style="fill:#e591a7;"/><path d="M574.22,622.64c.02-30.65-11.37-72.19-44.03-102.55,0,.62-.32,29.01-.36,48.21-.02,8.48,.02,15.17,.15,16.86,.06,.76,.1,23.7,.16,31.6,0,.87,.01,1.57,.02,2.02h.02l-16.9,11.66c-48.44,33.43-112.2,34.56-161.78,2.86l-6.56-4.19-19.34-12.36-1.07-.68v-96h205.62c-24.69-22.95-61.52-39.51-114.8-40.15,0,0-124.12,1.11-180.51,52.49-33.53,30.55-27.88,79.6-4.88,117.11l17.25-5.91c1.76,2.23,3.51,4.53,5.27,6.91,0,0,40.06,20.65,80.89,53.67,30.66,24.8,61.75,56.57,76.64,91.84,2.78,6.58,5.51,13.93,8.19,21.98,3.99,6.37,8.43,13.77,12.93,21.88-7.62-62.98-15.05-111.75-15.22-112.86-.34-2.2,1.17-4.26,3.37-4.59,2.18-.33,4.26,1.17,4.59,3.37,.19,1.23,9.32,61.15,17.73,134.2,1.19,2.46,2.37,4.95,3.52,7.47,.36,.78,.72,1.58,1.07,2.38,28.96-.73,57.22-4.3,84.51-10.43-.57-13.69-.68-26.03-.28-36.82,1.28-34.75,9.48-67.56,20.18-96.3-1.94-13.18-3.16-21.01-3.23-21.45-.34-2.2,1.16-4.26,3.36-4.61,2.2-.35,4.26,1.16,4.61,3.35,.04,.25,.47,2.98,1.19,7.77,16.91-40.21,37.58-70.72,47.86-84.69l-30.17-4.03Zm-141.97,75.45c-.27,1.95-1.91,3.46-3.94,3.48-.57,0-1.16,0-1.73,0-6.11,0-11.95-.31-17.55-.88-64.7-6.56-95.85-48.84-109.13-75.13-6.1-12.09-8.43-20.79-8.5-21.08-.55-2.15,.75-4.34,2.91-4.9,2.15-.53,4.35,.75,4.9,2.91,.28,1.1,2.51,9.38,8.11,20.53,13.5,26.9,46.58,70.51,119.23,70.5,.58,0,1.13-.12,1.73,0,2.21,0,4.01,1.78,4.03,3.99,0,.2-.03,.39-.05,.59Zm96.95-11.99h-.08c-2.19,0-3.99-1.75-4.03-3.95-.02-1.08,.39-2.06,1.07-2.79,.72-.78,1.73-1.29,2.88-1.31,.16,0,.73-.03,1.61-.13,6.89-2.28,13.04-4.67,18.3-7.16,8.6-6.02,17.55-17.02,21.31-37.11,.34-1.84,1.91-3.14,3.69-3.26,.33-.02,.67-.02,1.01,.04,2.19,.41,3.63,2.51,3.22,4.7-9.29,49.65-48.58,50.96-48.98,50.97Z" style="fill:#d3c3f4;"/><path d="M728.71,755.86c-12.34-3.25-25.35-6.04-38.29-8.42l4.05,36.73c11.9-8.85,23.32-18.3,34.24-28.3Z" style="fill:#2f2b47;"/><path d="M684.87,643.17c-2.05-.99-4.14-1.92-6.25-2.8l11.81,107.07c12.94,2.39,25.94,5.18,38.29,8.42,8.55-7.83,16.78-15.99,24.68-24.47-8.28-38.15-33.14-71.12-68.53-88.23Z" style="fill:#9e0d67;"/><path d="M431.13,839.89c-4.5-8.1-8.93-15.5-12.93-21.88,4.99,14.99,9.81,32.43,14.46,51.98,.66,0,1.33,.01,1.99,.01-1.16-10.29-2.34-20.37-3.52-30.11Z" style="fill:#3d365b;"/><path d="M446.2,869.86c-.36-.8-.71-1.6-1.07-2.38-1.15-2.52-2.33-5.01-3.52-7.47,.38,3.28,.75,6.59,1.13,9.92,1.15-.02,2.31-.04,3.46-.07Z" style="fill:#3d365b;"/><path d="M530.43,822.61c-.4,10.79-.29,23.14,.28,36.82,12.26-2.75,24.31-6.02,36.15-9.78-5.96-51.41-12.47-97.59-16.26-123.35-10.7,28.74-18.89,61.55-20.18,96.3Z" style="fill:#c50070;"/><path d="M690.43,747.44l-11.81-107.07-.42-3.83-73.81-9.86c-10.28,13.97-30.95,44.48-47.86,84.69,2.96,19.56,10.93,73.67,18.14,135.73,16.88-5.72,33.3-12.45,49.18-20.11,24.97-12.05,48.6-26.42,70.64-42.82l-4.05-36.73Z" style="fill:#c50070;"/><path d="M441.6,860c-8.41-73.05-17.54-132.97-17.73-134.2-.34-2.21-2.41-3.7-4.59-3.37-2.2,.33-3.71,2.39-3.37,4.59,.17,1.11,7.6,49.88,15.22,112.86,1.18,9.74,2.36,19.82,3.52,30.11,.12,0,.24,0,.36,0,2.58,0,5.16-.03,7.73-.08-.37-3.33-.75-6.64-1.13-9.92Z" style="fill:#f2f902;"/><path d="M555.33,703.59c-.35-2.2-2.41-3.71-4.61-3.35-2.2,.35-3.7,2.41-3.36,4.61,.07,.44,1.29,8.27,3.23,21.45,1.9-5.11,3.88-10.09,5.92-14.94-.72-4.79-1.15-7.52-1.19-7.77Z" style="fill:#f2f902;"/><path d="M550.6,726.3c3.79,25.75,10.3,71.93,16.26,123.35,2.61-.83,5.21-1.68,7.8-2.55-7.21-62.05-15.18-116.17-18.14-135.73-2.04,4.84-4.02,9.82-5.92,14.94Z" style="fill:#f2f902;"/><path d="M428.27,693.51c-.6-.11-1.15,0-1.73,0-72.65,.02-105.73-43.6-119.23-70.5-5.6-11.15-7.83-19.43-8.11-20.53-.55-2.16-2.75-3.44-4.9-2.91-2.16,.55-3.46,2.75-2.91,4.9,.07,.29,2.4,8.99,8.5,21.08,13.27,26.29,44.43,68.58,109.13,75.13,5.6,.57,11.44,.88,17.55,.88,.57,0,1.16,0,1.73,0,2.02-.02,3.67-1.53,3.94-3.48,.03-.19,.06-.39,.05-.59-.02-2.21-1.82-3.99-4.03-3.99Z" style="fill:#5d4a93;"/><path d="M574.96,630.42c-.34-.06-.68-.07-1.01-.04-1.78,.12-3.34,1.42-3.69,3.26-3.76,20.09-12.7,31.09-21.31,37.11-7.69,5.38-15.1,6.79-18.3,7.16-1.46,.48-2.96,.96-4.49,1.44-.68,.74-1.09,1.72-1.07,2.79,.04,2.2,1.84,3.96,4.03,3.95h.08c.4,0,39.68-1.32,48.98-50.97,.41-2.19-1.03-4.29-3.22-4.7Z" style="fill:#5d4a93;"/><path d="M529.04,678.04c-1.14,.02-2.16,.53-2.88,1.31,1.53-.47,3.02-.95,4.49-1.44-.88,.1-1.44,.12-1.61,.13Z" style="fill:#5d4a93;"/><path d="M196.9,790.59c-1.16-.8-2.29-1.61-3.42-2.43-18.63-13.57-33.78-30.66-44.9-49.86-2.01,5.83-4.13,12-6.34,18.45,16.52,15.04,34.22,28.83,52.92,41.21,15.12,10.01,30.9,19.1,47.27,27.2-14.03-12.01-29.93-23.82-45.52-34.57Z" style="fill:#3d365b;"/><path d="M418.2,818.01c-2.68-8.05-5.41-15.4-8.19-21.98-14.89-35.27-45.98-67.04-76.64-91.84-40.83-33.03-80.89-53.67-80.89-53.67-1.76-2.38-3.51-4.68-5.27-6.91l-17.25,5.91-11.72,4.01-45.18,15.47,.07,.39c-1.15,3.08-10.96,29.47-24.57,68.9,11.12,19.2,26.27,36.29,44.9,49.86,1.13,.82,2.27,1.64,3.42,2.43,15.59,10.75,31.49,22.56,45.52,34.57,7.36,3.64,14.84,7.08,22.43,10.31,51.59,21.95,108.28,34.21,167.8,34.53-4.65-19.55-9.47-36.99-14.46-51.98Z" style="fill:#c50070;"/><path d="M530.19,520.07h-.02s.02,.01,.02,.02c0,0,0-.02,0-.02Z" style="fill:#c14873;"/><path d="M530.16,520.07h-205.62v96l1.07,.68,19.34,12.36c22.53,2.73,45.48,.98,67.39-5.63,15.11-4.56,29.99-10.31,44.17-16.57,28.69-12.66,54.48-27.42,73.32-38.62,.04-19.19,.35-47.58,.36-48.21,0,0-.02-.01-.02-.02Z" style="fill:#c14873;"/><path d="M600.13,319.36c1.38-140.06-23.86-256.3-185.72-253.62-89.37,1.48-175.6,74.62-154.43,247.52,.29,2.35,.57,4.64,.84,6.9-.81,.33,2.45,67.21,12.07,119.26,2.28,12.35,4.39,20.9,9.52,41.6,15.5,62.57,93.08,107.52,145.6,107.6,52.51,.08,129.41-54.64,149.25-94.02,19.87-39.46,23.57-175.08,22.88-175.23Z" style="fill:#e591a7;"/><path d="M601.64,179.84c-.77-32.7-12.65-64.2-33.87-89.1-.28-.33-.56-.66-.84-.99-3.6-4.2-7.03-6.81-10.27-8.27-15.08-21.31-189.88-81.19-279.99,31.82-15.33,19.22-19.77,45.18-20.43,70.02l-3.75,141.92c9.61,29.74,21.49,.38,21.4-.78-1.16-15.62-4.75-71.27-1.54-124.9,2.42-40.28,26.25-66.07,43.22-79.49,94.52-46.06,195.93,6.21,246.12,15.3,11.8,14.55,22.29,34.57,23.77,60.66,2.78,48.73-.07,99.11-1.52,119.63-.21,2.97,4.75,47.4,21.01,6.11l-3.32-141.93Z" style="fill:#3a083a;"/><path d="M392.93,41.09s-18.74-3.45-59.51,12.19c-63.64,24.41-58.33,70.06-58.33,70.06,0,0,7.01,6.09,22.38-2.08,27.39-14.56,57.29-23.76,88.14-26.93,.45-.05,.9-.09,1.35-.14,28.8-3.06,57.91-.4,85.87,7.16,16.09,4.35,33.04,7.98,44.76,7.98,29.19,0,53.27-16.89,31.9-36.99-21.37-20.1-46.74-43.99-86-51.81-62.6-12.47-70.56,20.57-70.56,20.57Z" style="fill:#3a083a;"/><path d="M472.43,303.01s-2.81-10.4-.93-22.3c3.28-20.73,21.55-22.85,34.35-22.92,15.06-.07,41.85,5.91,43.48,20.7,1.3,11.82-5.62,29.79-5.62,29.79,0,0-8.95-13.79-28.78-15.77-19.84-1.98-42.5,10.49-42.5,10.49Z" style="fill:#e591a7;"/><g><path d="M310.31,302.94c1.06,3.53,7.22,20.07,29.89,20.6,26.34,.61,36.69-18.78,36.69-18.78-.17-1.6-4.66-15.57-33.29-15.57-24.11,0-31.15,11.24-33.29,13.75Z" style="fill:#fff;"/><g style="clip-path:url(#b);"><circle cx="343.6" cy="302.39" r="17.85" style="fill:#3a083a;"/></g></g><g><path d="M476.89,302.94c1.06,3.53,7.22,20.07,29.89,20.6,26.34,.61,36.69-18.78,36.69-18.78-.17-1.6-4.66-15.57-33.29-15.57-24.11,0-31.15,11.24-33.29,13.75Z" style="fill:#fff;"/><g style="clip-path:url(#c);"><circle cx="510.18" cy="302.39" r="17.85" style="fill:#3a083a;"/></g></g><path d="M307.96,303.01s-2.81-10.4-.93-22.3c3.28-20.73,21.55-22.85,34.35-22.92,15.06-.07,41.85,5.91,43.48,20.7,1.3,11.82-5.62,29.79-5.62,29.79,0,0-8.95-13.79-28.78-15.77-19.84-1.98-42.5,10.49-42.5,10.49Z" style="fill:#e591a7;"/><path d="M376.89,306.43c-1.1,0-2.19-.52-2.87-1.49-.31-.43-8.17-10.96-28.32-10.96s-33.05,9.73-33.17,9.83c-1.49,1.23-3.7,1.01-4.93-.48-1.23-1.49-1.01-3.7,.48-4.93,.57-.47,14.18-11.42,37.61-11.42s33.65,13.36,34.05,13.93c1.11,1.58,.73,3.77-.85,4.88-.61,.43-1.31,.64-2.01,.64Z" style="fill:#3a083a;"/><path d="M472.43,303.01s-2.81-10.4-.93-22.3c3.28-20.73,21.55-22.85,34.35-22.92,15.06-.07,41.85,5.91,43.48,20.7,1.3,11.82-5.62,29.79-5.62,29.79,0,0-8.95-13.79-28.78-15.77-19.84-1.98-42.5,10.49-42.5,10.49Z" style="fill:#e591a7;"/><path d="M543.47,306.43c-1.1,0-2.19-.52-2.87-1.49-.31-.43-8.17-10.96-28.32-10.96s-33.06,9.74-33.18,9.84c-1.5,1.21-3.7,.99-4.92-.5-1.22-1.49-1-3.69,.49-4.91,.57-.47,14.18-11.42,37.61-11.42s33.65,13.36,34.05,13.93c1.11,1.58,.73,3.77-.85,4.88-.61,.43-1.31,.64-2.01,.64Z" style="fill:#3a083a;"/><path d="M516.36,224.41c-21.52-3.57-49.84,2.87-46.89,13.06,3.05,10.52,24.13,1.57,49.63,5.26,23.39,3.39,37.39,10.98,43.99,26.65,.81,1.92,2.89,1.85,2.86-.2-.09-5.97-.61-16.33-7.91-24.81-10.12-11.76-23.14-16.88-41.68-19.95Z" style="fill:#3a083a;"/><path d="M337.75,224.41c21.52-3.57,49.84,2.87,46.89,13.06-3.05,10.52-24.13,1.57-49.63,5.26-23.39,3.39-37.39,10.98-43.99,26.65-.81,1.92-2.89,1.85-2.86-.2,.09-5.97,.61-16.33,7.91-24.81,10.12-11.76,23.14-16.88,41.68-19.95Z" style="fill:#3a083a;"/><ellipse cx="269.38" cy="375.58" rx="29.63" ry="55.94" transform="translate(-76.6 69.11) rotate(-12.82)" style="fill:#e591a7;"/><ellipse cx="594.36" cy="371.26" rx="56.75" ry="29.63" transform="translate(173.49 931.6) rotate(-85.08)" style="fill:#e591a7;"/><path d="M438.77,416h-23.94c-.48,0-.95-.02-1.41-.06-1.65-.13-2.88-1.58-2.75-3.23,.13-1.65,1.57-2.88,3.23-2.75,.3,.02,.61,.04,.93,.04h23.94c.33,0,.66-.01,.97-.04,2.6-.22,4.97-1.49,6.68-3.59,1.84-2.25,2.69-5.21,2.33-8.1l-2.91-23.9c-.2-1.65,.97-3.14,2.62-3.34,1.64-.2,3.14,.97,3.34,2.62l2.91,23.9c.55,4.51-.78,9.1-3.64,12.62-2.75,3.37-6.59,5.42-10.84,5.78-.48,.04-.97,.06-1.47,.06Z" style="fill:#3a083a;"/><path d="M380.06,465.94c-.11-.02-.22-.04-.34-.05-6.82-1.1-10.09,8.22-4.01,11.48,10.07,5.41,26.46,10.25,52.86,10.29,27.23,.04,43.81-4.97,53.82-10.45,5.99-3.29,2.98-12.43-3.79-11.54l-11.85,1.55c-13.1,1.71-26.29,2.56-39.47,2.54-15.8-.02-31.59-1.29-47.22-3.81Z" style="fill:#fff;"/><path d="M425.01,285.31c1.19-.21,2.36-.21,3.56,0,.82,.14,1.75,.32,2.78,.53,11.84,2.43,10.93,23.08,18.83,44.64,7.9,21.56,23.08,42.52,69.85,38.87,46.77-3.64,52.54-45.55,54.06-54.36,1.05-6.11,3.13-12.07,4.3-15.15,.53-1.39,1.33-2.63,2.38-3.68h0c2.91-2.92,4.55-6.87,4.55-10.99v-17.19c0-2.37-1.63-4.41-3.94-4.94-7.64-1.75-25.78-5.68-49.21-9.09-31.28-4.56-63.17,1.52-69.85,6.07-.07,.05-.13,.09-.2,.14-5.9,3.98-12.93,5.94-20.04,5.94h-30.58c-7.12,0-14.15-1.95-20.05-5.94-.07-.04-.13-.09-.2-.14-6.68-4.56-38.57-10.63-69.85-6.07-23.42,3.41-41.57,7.33-49.21,9.09-2.31,.53-3.94,2.57-3.94,4.94v17.19c0,4.12,1.64,8.07,4.55,10.99h0c1.05,1.05,1.85,2.29,2.38,3.68,1.17,3.08,3.25,9.04,4.3,15.15,1.52,8.81,7.29,50.72,54.06,54.36,46.77,3.65,61.95-17.31,69.85-38.87,7.9-21.56,6.98-42.21,18.83-44.64,1.03-.21,1.96-.39,2.78-.53Zm115.66,70.99c-15.18,9.72-48.13,9.17-67.72-3.04-18.53-11.54-28.55-64.99-11.54-80.78,17.01-15.79,54.06-12.15,54.06-12.15,3.64,.3,48.29,.91,49.81,35.84,1.52,34.92-9.41,50.41-24.6,60.13Zm-252.37-60.13c1.52-34.92,46.16-35.53,49.81-35.84,0,0,37.05-3.64,54.06,12.15,17.01,15.79,6.98,69.24-11.54,80.78-19.6,12.21-52.54,12.75-67.72,3.04-15.18-9.72-26.12-25.21-24.6-60.13Z" style="fill:#3a083a;"/></svg>